<svg width="70" height="102" viewBox="0 0 70 102" fill="none" xmlns="http://www.w3.org/2000/svg">
<path d="M20.8388 47.4355L23.8549 54.2903H34.2742L45.242 55.6613L48.8065 52.9193L49.6291 44.9677L48.8065 40.0322V32.629L41.4033 21.9355L48.8065 15.629L50.4517 10.9677L37.5646 1.64514L32.9033 1.91934L26.871 6.03224L18.371 12.0645L16.4517 16.4516L24.9517 21.9355L21.9355 32.629L20.8388 47.4355Z" fill="#FAFAF5"/>
<path d="M3.20531 93.4391C2.67525 93.4391 2.26991 93.4329 1.98929 93.4205L0.477055 93.4018C0.367925 93.4018 0.261913 93.3521 0.165254 93.2525C0.0654782 93.153 0.0187081 93.0473 0.0187081 92.9385V87.0737L0 85.553C0 85.0462 0.012472 84.4087 0.0374161 83.6406C0.0374161 83.4789 0.0561242 83.0653 0.0935403 82.3968V81.9707C0.0935403 81.6256 0.162136 81.3457 0.296211 81.1342C0.358571 81.0223 0.455229 80.9663 0.592422 80.9663C1.1942 80.9663 1.8521 80.9787 2.56612 81.0036C2.6659 81.0161 2.80621 81.0223 2.99017 81.0223C3.39551 81.0223 3.69796 81.0285 3.89439 81.0409H5.32244C5.56253 81.0409 5.74961 81.072 5.88368 81.1342C6.10506 81.2586 6.21419 81.5416 6.21419 81.9863L6.19548 82.1355C6.19548 82.1729 6.18301 82.2661 6.15807 82.4154C6.12065 82.602 6.10194 82.7388 6.10194 82.8228C6.10194 82.9596 6.12065 83.1306 6.15807 83.3421C6.18301 83.4914 6.19548 83.5909 6.19548 83.6406L6.21419 83.7526V88.9301C6.21419 89.0296 6.27031 89.0918 6.37945 89.1167C6.41686 89.1291 6.49481 89.1354 6.61953 89.1354H7.96651C8.29702 89.1229 8.80214 89.1167 9.47875 89.1167C9.61282 89.1167 9.72507 89.1571 9.80925 89.238C9.89656 89.3188 9.93709 89.4028 9.93709 89.4899V93.0722C9.93709 93.1717 9.8872 93.2525 9.79055 93.3147C9.68142 93.3645 9.55046 93.3956 9.40391 93.408C9.24489 93.4453 8.99234 93.464 8.64935 93.464H5.97722C4.71131 93.464 3.78838 93.4578 3.21155 93.4453L3.20531 93.4391Z" fill="#331A0F"/>
<path d="M12.4039 93.4298C12.2823 93.4111 12.1326 93.3955 11.9611 93.3831L11.5745 93.2898C11.5121 93.2774 11.4653 93.2618 11.4373 93.2432C11.4061 93.2245 11.3967 93.209 11.4092 93.1965C11.4092 92.8762 11.3905 92.4471 11.3531 91.9154C11.3531 91.7288 11.3469 91.5671 11.3344 91.424C11.3219 91.281 11.3094 91.1628 11.297 91.0633L11.2596 90.2641C11.2596 90.0527 11.2471 89.7884 11.2221 89.465L11.2034 88.8897C11.2034 88.4201 11.1972 88.0532 11.1847 87.7951C11.1723 87.5339 11.166 86.9897 11.166 86.1625C11.166 85.382 11.1723 84.5797 11.1847 83.7494C11.1972 82.9222 11.2346 82.1355 11.2939 81.3923C11.2939 81.2555 11.4404 81.1435 11.7366 81.0596C11.9206 81.0347 12.2293 81.0222 12.6595 81.0222C13.6542 81.0222 14.3869 81.0036 14.8546 80.9663C16.3045 80.9414 17.3989 80.929 18.1348 80.929H18.9454C19.9526 80.9538 20.7258 80.9911 21.2684 81.0409C21.4648 81.0409 21.6051 81.2772 21.6924 81.7468C21.7298 81.8339 21.7735 82.0546 21.8203 82.4154C21.8577 82.6019 21.9076 82.8289 21.9668 83.1026C21.9793 83.1772 21.9824 83.2488 21.9762 83.3172C21.9699 83.3856 21.9668 83.426 21.9668 83.4384C21.9543 83.5628 21.8857 83.625 21.7641 83.625C21.7142 83.6126 21.6425 83.6064 21.5427 83.6064C21.0252 83.6064 20.3922 83.6499 19.6439 83.737L18.6679 83.8116C18.2626 83.8614 17.9414 83.8925 17.7107 83.9049C17.6733 83.9049 17.6234 83.9795 17.5642 84.1288C17.5143 84.2905 17.4582 84.6605 17.3989 85.242L17.3615 85.7054C17.3615 85.8671 17.3802 85.9697 17.4176 86.0101C17.455 86.0537 17.5361 86.0754 17.6577 86.0754H19.2978C19.778 86.0754 20.3236 86.1065 20.9379 86.1687H21.1592C21.3183 86.206 21.418 86.2682 21.4554 86.3553C21.5053 86.4299 21.5365 86.5108 21.549 86.5979L21.6238 88.2491V88.3051C21.6238 88.5165 21.4024 88.6378 20.9597 88.6751C20.7009 88.7373 20.2114 88.7684 19.4849 88.7684C18.8581 88.7684 18.4528 88.7622 18.2688 88.7497C17.9134 88.7497 17.6982 88.7559 17.6234 88.7684C17.4893 88.8057 17.402 88.8772 17.3646 88.983C17.3272 89.0887 17.3085 89.2659 17.3085 89.5116C17.3085 89.6733 17.296 89.9003 17.2711 90.1988C17.2586 90.3481 17.2524 90.5813 17.2524 90.9047C18.0506 90.9047 18.6399 90.8923 19.0234 90.8674C19.4412 90.8301 20.0305 90.8114 20.7913 90.8114C20.8412 90.8114 20.8911 90.855 20.9379 90.942C21.0002 91.0664 21.0969 91.3432 21.2341 91.7785C21.3089 92.0273 21.3806 92.3352 21.4554 92.7052C21.4804 92.7923 21.4929 92.8856 21.4929 92.9851C21.4929 93.2463 21.3713 93.3738 21.1249 93.3738C20.8038 93.3738 20.3766 93.3862 19.8341 93.4111C19.5503 93.436 19.1076 93.4484 18.5058 93.4484C17.215 93.4484 16.2453 93.4546 15.5936 93.4671H12.6814C12.619 93.4671 12.5286 93.4577 12.4039 93.4391V93.4298Z" fill="#331A0F"/>
<path d="M28.2213 93.0287C28.1589 92.8918 28.1277 92.6462 28.1277 92.2854C28.1277 91.2095 28.1152 90.2517 28.0903 89.409C28.0529 88.1962 28.0342 86.9151 28.0342 85.5686V81.4856C28.0342 81.3737 28.0872 81.2648 28.1901 81.1622C28.293 81.0565 28.4021 81.0036 28.5112 81.0036L30.6315 81.0223C31.0244 81.0347 31.5419 81.0409 32.1811 81.0409C33.1041 81.0409 33.815 81.0347 34.3201 81.0223L35.0029 81.0036C35.7388 80.9787 36.3499 80.9663 36.827 80.9663C37.6002 80.9663 38.3392 81.0783 39.0376 81.299C39.8608 81.5478 40.5312 81.9738 41.0456 82.5802C41.6225 83.2364 41.9124 84.1195 41.9124 85.2328C41.9124 87.1141 41.4385 88.473 40.4937 89.3157C39.6581 90.1087 38.4109 90.5036 36.7521 90.5036H34.2265C34.239 90.7897 34.2453 91.0913 34.2453 91.4116C34.2453 91.5236 34.2453 91.6573 34.2359 91.8097C34.2297 91.9651 34.2265 92.1704 34.2265 92.4316C34.2265 92.839 34.1392 93.1002 33.9677 93.2121C33.8337 93.3241 33.5811 93.38 33.2132 93.38C32.6738 93.38 32.2965 93.3863 32.0876 93.3987C31.2395 93.3987 30.5629 93.4111 30.0609 93.436H28.6235C28.4146 93.436 28.2805 93.2992 28.2181 93.0287H28.2213ZM35.2243 88.2802C35.4831 88.2802 35.6733 88.0314 35.7949 87.537C35.8916 87.2043 35.9664 86.7067 36.0163 86.0537C36.0412 85.6961 36.0537 85.2918 36.0537 84.8472V84.6419C36.0537 84.4429 36.0225 84.1475 35.9633 83.7526C35.9134 83.5287 35.8573 83.3545 35.798 83.2239C35.7357 83.0933 35.6577 82.9845 35.5579 82.9005C35.4582 82.7886 35.349 82.7326 35.2274 82.7326C35.1651 82.7326 35.1121 82.7575 35.0715 82.8072C35.0279 82.857 34.9873 82.9192 34.953 82.9938C34.819 83.2177 34.6942 83.7121 34.5851 84.4771C34.5477 84.701 34.5165 85.0337 34.4916 85.4784C34.4292 86.1594 34.4012 87.0674 34.4012 88.2056C34.4261 88.2305 34.4573 88.2491 34.4916 88.2616L34.713 88.2802H35.2305H35.2243Z" fill="#331A0F"/>
<path d="M43.1164 93.1033C43.1039 93.0659 43.0977 93.0037 43.0977 92.9167C43.0977 92.7923 43.1226 92.6088 43.1725 92.36C43.1974 92.1983 43.2193 92.074 43.238 91.9807C43.2567 91.8874 43.2723 91.8159 43.2847 91.7661C43.6527 90.0216 44.0144 88.4885 44.3729 87.1638L45.6638 81.299C45.6638 81.2741 45.6825 81.2368 45.7199 81.1871C45.7573 81.1373 45.801 81.1062 45.8477 81.0938H45.9413C45.9413 81.0938 45.96 81.1124 45.9974 81.1124C46.144 81.1124 46.3123 81.0938 46.4963 81.0565C46.6803 81.0191 46.8455 81.0005 46.9952 81.0005C47.2664 81.0005 47.5159 81.0191 47.7497 81.0565C47.8589 81.0565 47.9836 81.0627 48.1177 81.0751C48.2517 81.0876 48.3952 81.0938 48.5417 81.0938C48.5916 81.0938 48.6446 81.0813 48.707 81.0565H49.4615L49.9043 81.0378C49.9916 81.0254 50.0945 81.0191 50.2161 81.0191C50.3158 81.0191 50.3626 81.0129 50.3626 81.0005H52.0588C52.7479 81.0005 53.2031 81.0129 53.4245 81.0378C53.4619 81.0378 53.5149 81.0409 53.5804 81.0471C53.649 81.0534 53.6864 81.0689 53.6989 81.0938C53.7862 81.0938 53.8704 81.0876 53.9577 81.0751C54.045 81.0627 54.1229 81.0565 54.1978 81.0565C54.3693 81.0191 54.5345 81.0005 54.6966 81.0005C54.7715 81.0005 54.8432 81.0191 54.918 81.0565C54.9929 81.0938 55.0708 81.1124 55.1581 81.1124L55.2517 81.0938H55.3078C55.3452 81.1187 55.3857 81.1529 55.4263 81.1964C55.4699 81.2399 55.4917 81.2741 55.4917 81.299L56.7826 87.1638C57.1755 88.6098 57.5309 90.146 57.8521 91.7661C57.8521 91.8407 57.877 91.9216 57.9269 92.0087C57.9394 92.0957 57.9581 92.2139 57.983 92.36C58.008 92.5093 58.0204 92.6337 58.0204 92.7301C58.0329 92.7799 58.0392 92.8483 58.0392 92.9353C58.0392 93.1095 58.0017 93.2494 57.9269 93.3614C57.877 93.436 57.8053 93.4733 57.7055 93.4733H57.4654C57.2815 93.4733 57.1412 93.4671 57.0414 93.4546H55.7318C55.6321 93.4546 55.5853 93.4484 55.5853 93.436H54.4254V93.3987C54.3755 93.3738 54.3131 93.3614 54.2414 93.3614C54.2289 93.3738 54.2165 93.3862 54.204 93.3987C54.204 93.4235 54.1915 93.436 54.1666 93.436H53.9639C53.9016 93.4111 53.78 93.3987 53.596 93.3987C53.2281 93.3738 52.9381 93.3614 52.7292 93.3614C52.6544 93.2494 52.5795 93.0286 52.4985 92.6928C52.4174 92.36 52.3363 91.9869 52.249 91.5795C52.2241 91.3805 52.1991 91.2468 52.1742 91.1722C51.9154 91.2219 51.5786 91.2468 51.1608 91.2468H50.0539L49.9261 91.8407C49.7671 92.6586 49.6361 93.1654 49.5395 93.3614C49.4896 93.3614 49.4303 93.3738 49.3555 93.3987C49.3306 93.4111 49.2994 93.4235 49.262 93.436H49.1871C49.1123 93.436 49.0593 93.4235 49.0219 93.3987C48.9969 93.3738 48.9657 93.3614 48.9283 93.3614L48.0989 93.3987H47.5283C47.4785 93.4235 47.4192 93.436 47.3444 93.436H45.4081C45.274 93.4484 44.9965 93.4546 44.5787 93.4546H44.0985C43.9988 93.4671 43.8585 93.4733 43.6745 93.4733H43.4531C43.2941 93.4733 43.1818 93.3489 43.1226 93.1033H43.1164ZM51.8343 88.019C51.7969 87.8448 51.7345 87.5183 51.6504 87.0363C51.6254 86.9119 51.5631 86.5792 51.4664 86.035L51.3198 85.1457C51.2824 84.8969 51.245 84.6823 51.2076 84.4957L51.1889 84.2532C51.1515 84.191 51.1328 84.135 51.1328 84.0853L51.1141 83.9733C51.1016 83.9982 51.0954 84.0355 51.0954 84.0853C51.0954 84.135 51.0829 84.1661 51.0579 84.1786V84.2532L51.0205 84.4957C51.008 84.5828 50.9925 84.6792 50.9737 84.7818C50.955 84.8876 50.9332 85.0026 50.9083 85.1239L50.8147 85.6432C50.6807 86.4237 50.5996 86.8746 50.5746 86.999C50.5622 87.1358 50.531 87.338 50.4811 87.6116C50.4562 87.6987 50.4312 87.8293 50.4063 88.0003L50.2597 88.8524H51.1982L51.3261 88.815H51.3635C51.51 88.815 51.6223 88.8275 51.694 88.8524C51.7439 88.8524 51.7875 88.8617 51.8312 88.8803C51.8749 88.899 51.9154 88.9146 51.9497 88.927L51.8218 88.019H51.8343Z" fill="#331A0F"/>
<path d="M62.9875 93.4391C62.4575 93.4391 62.0521 93.4329 61.7715 93.4205L60.2593 93.4018C60.1502 93.4018 60.0441 93.3521 59.9475 93.2525C59.8477 93.153 59.8009 93.0473 59.8009 92.9385V87.0737L59.7822 85.553C59.7822 85.0462 59.7947 84.4087 59.8196 83.6406C59.8196 83.4789 59.8383 83.0653 59.8758 82.3968V81.9707C59.8758 81.6256 59.9444 81.3457 60.0784 81.1342C60.1408 81.0223 60.2375 80.9663 60.3746 80.9663C60.9764 80.9663 61.6343 80.9787 62.3483 81.0036C62.4481 81.0161 62.5884 81.0223 62.7724 81.0223C63.1777 81.0223 63.4802 81.0285 63.6766 81.0409H65.1047C65.3448 81.0409 65.5318 81.072 65.6659 81.1342C65.8873 81.2586 65.9964 81.5416 65.9964 81.9863L65.9777 82.1355C65.9777 82.1729 65.9652 82.2661 65.9403 82.4154C65.9029 82.602 65.8842 82.7388 65.8842 82.8228C65.8842 82.9596 65.9029 83.1306 65.9403 83.3421C65.9652 83.4914 65.9777 83.5909 65.9777 83.6406L65.9964 83.7526V88.9301C65.9964 89.0296 66.0525 89.0918 66.1617 89.1167C66.1991 89.1291 66.277 89.1354 66.4018 89.1354H67.7487C68.0792 89.1229 68.5844 89.1167 69.261 89.1167C69.395 89.1167 69.5073 89.1571 69.5915 89.238C69.6788 89.3188 69.7193 89.4028 69.7193 89.4899V93.0722C69.7193 93.1717 69.6694 93.2525 69.5728 93.3147C69.4636 93.3645 69.3327 93.3956 69.1861 93.408C69.0271 93.4453 68.7746 93.464 68.4316 93.464H65.7594C64.4935 93.464 63.5706 93.4578 62.9938 93.4453L62.9875 93.4391Z" fill="#331A0F"/>
<path d="M0.970106 100.716L0.53982 101.916H0.050293L1.47834 97.9543H2.04894L3.53623 101.916H3.02487L2.579 100.716H0.970106ZM2.42622 100.237C2.02087 99.1422 1.82756 98.626 1.75273 98.3555H1.74961C1.68101 98.6136 1.4534 99.2946 1.11977 100.237H2.42622Z" fill="#331A0F"/>
<path d="M4.49358 97.9543V100.206C4.49358 101.244 5.00493 101.53 5.51005 101.53C6.11806 101.53 6.48599 101.188 6.48599 100.206V97.9543H6.95681V100.2C6.95681 101.487 6.39245 102 5.49446 102C4.59647 102 4.02588 101.478 4.02588 100.243V97.9543H4.4967H4.49358Z" fill="#331A0F"/>
<path d="M8.96129 101.916L7.5083 97.9543H8.02277L8.77733 100.066C9.05483 100.849 9.16708 101.207 9.22944 101.428H9.2388C9.2918 101.235 9.44147 100.812 9.66284 100.156L10.4611 97.9512H10.9631L9.48824 101.913H8.95817L8.96129 101.916Z" fill="#331A0F"/>
<path d="M14.0128 100.072H12.0204V101.443H14.2186L14.1563 101.916H11.5527V97.9543H14.1189V98.427H12.0204V99.5994H14.0128V100.072Z" fill="#331A0F"/>
<path d="M15.4413 100.209V101.916H14.9736V97.9543H16.5607C17.2404 97.9543 17.6988 98.3275 17.6988 99.0303C17.6988 99.5092 17.4992 99.8481 17.0908 99.9756C17.309 100.047 17.6115 100.246 17.6115 100.94V101.114C17.6115 101.418 17.6115 101.751 17.6489 101.919H17.1687C17.1188 101.745 17.1251 101.446 17.1251 101.114V100.983C17.1251 100.399 16.9349 100.215 16.3518 100.215H15.4382L15.4413 100.209ZM15.4413 99.7486H16.4422C16.9629 99.7486 17.2155 99.5309 17.2155 99.0614C17.2155 98.6291 16.9598 98.4115 16.4609 98.4115H15.4413V99.7486Z" fill="#331A0F"/>
<path d="M21.661 101.916H21.3024C21.2868 101.817 21.2681 101.506 21.265 101.331C21.0436 101.757 20.7069 102 20.0552 102C19.0075 102 18.3652 101.179 18.3652 99.9476C18.3652 98.7815 19.0294 97.8704 20.1363 97.8704C21.1309 97.8704 21.555 98.4736 21.6797 99.0582H21.1964C21.0685 98.6882 20.7786 98.3306 20.1331 98.3306C19.3006 98.3306 18.861 99.0271 18.861 99.9134C18.861 100.846 19.3069 101.534 20.1207 101.534C20.8129 101.534 21.2057 101.114 21.2057 100.333V100.215H20.1269V99.7455H21.6579V101.913L21.661 101.916Z" fill="#331A0F"/>
<path d="M22.5776 101.916V97.9543H23.1389C23.8872 99.195 24.9536 100.821 25.1438 101.229H25.1531C25.1219 100.713 25.1282 100.088 25.1282 99.4438V97.9512H25.5678V101.913H25.0377C24.5451 101.123 23.2418 98.9867 23.0048 98.5265H22.9955C23.0204 99.0364 23.0204 99.5962 23.0204 100.299V101.916H22.5808H22.5776Z" fill="#331A0F"/>
<path d="M29.0724 100.072H27.08V101.443H29.2782L29.2158 101.916H26.6123V97.9543H29.1784V98.427H27.08V99.5994H29.0724V100.072Z" fill="#331A0F"/>
<path d="M31.9189 100.209V101.916H31.4512V97.9543H33.0382C33.718 97.9543 34.1763 98.3275 34.1763 99.0303C34.1763 99.5092 33.9768 99.8481 33.5683 99.9756C33.7866 100.047 34.089 100.246 34.089 100.94V101.114C34.089 101.418 34.089 101.751 34.1264 101.919H33.6463C33.5964 101.745 33.6026 101.446 33.6026 101.114V100.983C33.6026 100.399 33.4124 100.215 32.8293 100.215H31.9158L31.9189 100.209ZM31.9189 99.7486H32.9198C33.4373 99.7486 33.693 99.5309 33.693 99.0614C33.693 98.6291 33.4373 98.4115 32.9385 98.4115H31.9189V99.7486Z" fill="#331A0F"/>
<path d="M35.0664 97.9543H35.5372V99.5558H37.539V97.9543H38.0098V101.916H37.539V100.032H35.5372V101.916H35.0664V97.9543Z" fill="#331A0F"/>
<path d="M42.3338 99.9228C42.3338 101.042 41.6977 102 40.5846 102C39.4714 102 38.8447 101.083 38.8447 99.9228C38.8447 98.8251 39.5307 97.8736 40.5971 97.8736C41.6634 97.8736 42.3338 98.8251 42.3338 99.9259V99.9228ZM39.3405 99.9042C39.3405 100.756 39.777 101.527 40.6002 101.527C41.4233 101.527 41.8349 100.79 41.8349 99.9321C41.8349 99.0739 41.4015 98.34 40.569 98.34C39.7957 98.34 39.3405 99.0677 39.3405 99.9042ZM40.8184 96.8101L41.5013 97.575H41.0305L40.5534 97.0682L40.0826 97.575H39.6211L40.2977 96.8101H40.8215H40.8184Z" fill="#331A0F"/>
<path d="M43.1479 101.916V97.9543H43.7092C44.4575 99.195 45.5239 100.821 45.7141 101.229H45.7234C45.6922 100.713 45.6985 100.088 45.6985 99.4438V97.9512H46.1381V101.913H45.6081C45.1154 101.123 43.8121 98.9867 43.5751 98.5265H43.5658C43.5907 99.0364 43.5907 99.5962 43.5907 100.299V101.916H43.1511H43.1479Z" fill="#331A0F"/>
<path d="M49.6427 100.072H47.6503V101.443H49.8485L49.7862 101.916H47.1826V97.9543H49.7487V98.427H47.6503V99.5994H49.6427V100.072Z" fill="#331A0F"/>
<path d="M51.8876 100.255V100.716H50.394V100.255H51.8876Z" fill="#331A0F"/>
<path d="M53.1659 100.716L52.7356 101.916H52.2461L53.6741 97.9543H54.2447L55.732 101.916H55.2207L54.7717 100.716H53.1628H53.1659ZM54.6189 100.237C54.2136 99.1422 54.0202 98.626 53.9454 98.3555H53.9392C53.8706 98.6136 53.643 99.2946 53.3093 100.237H54.6189Z" fill="#331A0F"/>
<path d="M56.3428 97.9543H56.8105V101.44H58.8154L58.7436 101.916H56.3459V97.9543H56.3428Z" fill="#331A0F"/>
<path d="M59.4014 97.9543H60.9604C61.7866 97.9543 62.1608 98.4643 62.1608 99.1205C62.1608 99.8979 61.7118 100.333 60.976 100.333H59.8722V101.916H59.4014V97.9543ZM59.8722 99.8606H60.9105C61.3657 99.8606 61.6869 99.6989 61.6869 99.1298C61.6869 98.682 61.4343 98.4239 60.9105 98.4239H59.8722V99.8606Z" fill="#331A0F"/>
<path d="M65.3693 100.072H63.3769V101.443H65.5751L65.5127 101.916H62.9092V97.9543H65.4753V98.427H63.3769V99.5994H65.3693V100.072Z" fill="#331A0F"/>
<path d="M66.5269 100.762C66.6485 101.226 66.9322 101.552 67.587 101.552C68.2418 101.552 68.4912 101.251 68.4912 100.881C68.4912 100.492 68.3072 100.252 67.4529 100.078C66.452 99.8761 66.2151 99.503 66.2151 98.9619C66.2151 98.2653 66.7701 97.8673 67.4934 97.8673C68.5754 97.8673 68.828 98.5421 68.8654 98.9432H68.3883C68.3197 98.6727 68.1794 98.3182 67.4779 98.3182C67.0008 98.3182 66.6921 98.511 66.6921 98.909C66.6921 99.2324 66.8293 99.4377 67.5839 99.5869C68.7843 99.8295 68.9776 100.274 68.9776 100.821C68.9776 101.453 68.5567 101.994 67.5558 101.994C66.6266 101.994 66.1589 101.49 66.0498 100.759H66.53L66.5269 100.762Z" fill="#331A0F"/>
<path d="M58.9656 42.9881C58.4262 41.2187 57.1946 39.3872 55.2552 39.014C53.4405 38.6626 51.8784 39.4183 50.5252 40.4849C50.5252 40.4849 50.5231 40.4869 50.5189 40.4911C50.7309 37.2415 50.6281 34.0168 49.7332 30.8045C48.7417 27.2688 46.9956 23.9975 44.6539 21.1801C45.0998 21.0247 45.5363 20.8443 45.9635 20.636C48.3862 19.4636 50.1042 17.2962 50.7715 14.7027C51.5229 11.7828 51.0147 8.79128 50.3973 5.90242C50.5158 5.60078 50.575 5.27738 50.5563 4.94775C50.5189 4.31649 50.2601 3.77231 49.7581 3.3836C49.3715 3.08818 48.8695 2.92648 48.3769 2.94825C47.5132 2.98867 46.8054 3.50177 46.0415 3.84694C45.6299 4.01175 45.209 4.14235 44.7787 4.24186C41.5328 0.553816 36.0077 -1.02589 31.3525 0.696859C29.0452 1.55201 27.0777 3.01666 25.5468 4.87934C25.5468 4.88245 25.5437 4.88556 25.5406 4.88867C25.4938 4.94464 25.447 5.00062 25.4034 5.0597C23.8381 4.2201 21.5401 4.43155 20.056 5.2836C18.0792 6.42173 17.5335 8.41813 17.5553 10.5638C17.5584 10.7131 17.5803 10.8499 17.6177 10.9712C16.0805 12.0564 15.0079 13.8289 14.9986 15.8782C14.9861 20.4525 19.2359 23.2294 23.3829 22.7039C23.0867 25.2289 22.064 27.698 21.4466 30.1235C20.7108 32.9999 20.137 35.9199 19.7629 38.8616C19.4105 41.7474 19.1237 44.8104 19.5321 47.7086C19.5633 47.9169 19.5976 48.1128 19.6413 48.3212C17.7143 49.1452 16.121 50.9582 16.2302 53.1536C16.2395 53.3713 16.2645 53.6014 16.3081 53.8097C16.3487 54.0429 16.4048 54.2731 16.4827 54.4939C16.9411 54.3477 17.415 54.2109 17.9014 54.0803C18.2974 53.9683 18.709 53.8626 19.1299 53.7631C19.1268 53.7537 19.1206 53.7444 19.1143 53.7351V53.7227C19.0925 53.6356 19.0582 53.5578 19.0364 53.4708C19.0146 53.4055 19.0021 53.3495 18.9927 53.2935C18.9803 53.2624 18.9803 53.2407 18.9803 53.2189V53.2065C18.9709 53.1194 18.9709 53.0323 18.9709 53.0105V52.9763C18.9709 52.9328 18.9709 52.8551 18.9803 52.8022V52.7898C18.9927 52.7462 19.0021 52.6903 19.0146 52.6374C19.0489 52.5254 19.08 52.4166 19.1143 52.3078C19.1143 52.2953 19.1362 52.286 19.1455 52.2518C19.211 52.1429 19.2671 52.0217 19.3326 51.9222C19.3544 51.8911 19.3762 51.8444 19.3981 51.8133C19.4324 51.6578 19.7629 51.4184 19.872 51.3189C19.8938 51.2971 19.9281 51.2754 19.9624 51.2536C20.0497 51.1976 20.137 51.1448 20.2243 51.0763C20.3117 51.0235 20.4114 50.9799 20.5112 50.924C20.7544 51.4402 21.0163 51.9346 21.2938 52.4166C21.456 52.6871 21.6212 52.9515 21.7958 53.2127C22.2261 53.138 22.6657 53.0665 23.1179 53.0043C23.6542 52.9235 24.2029 52.8488 24.7642 52.7835C24.5615 52.4975 24.3713 52.1989 24.1873 51.9004C23.8007 51.2536 23.4484 50.5943 23.1428 50.0128C22.0078 47.8952 22.0733 45.566 22.1606 43.2307C22.2511 40.858 22.513 38.4978 22.9339 36.1593C23.3829 33.6156 24.0003 31.0999 24.7049 28.6091C25.4189 26.0841 26.3232 23.5932 26.2016 20.9376C26.1579 20.126 25.3441 19.2801 24.4617 19.6098C21.6898 20.6639 18.0667 19.6098 17.7705 16.2607C17.5054 13.462 20.5455 11.5838 22.8653 13.2536C23.57 13.7698 24.7143 13.2412 24.892 12.442C25.2662 10.7504 25.949 9.07115 26.9281 7.60029V7.59096C27.1806 7.2178 27.4457 6.85397 27.7543 6.50258C28.8862 5.11878 30.3516 3.98998 32.079 3.34317C35.9952 1.85987 40.3979 3.25299 43.0295 6.41551C43.1292 6.53679 43.2353 6.63008 43.3444 6.7016C43.3475 6.7016 43.3475 6.70471 43.3506 6.70471C43.6687 7.03433 44.7756 7.04677 45.2838 6.94104C45.5457 6.88507 45.8076 6.81977 46.0633 6.74202C46.2473 6.95037 46.4686 7.12762 46.7243 7.26756C47.0953 7.46968 47.5132 7.58163 47.9341 7.58785C48.6731 11.5122 48.857 16.0461 44.7974 18.1544C43.123 19.0252 41.1555 19.2957 39.291 19.3641C37.3017 19.4356 34.7948 19.3734 33.7783 17.349C32.9864 15.7693 30.6104 17.1562 31.4024 18.7328C32.7151 21.345 35.7084 22.1161 38.4179 22.1224C39.4905 22.1255 40.5756 22.0633 41.6451 21.9078C41.6669 21.9358 41.6918 21.9638 41.7168 21.9918C44.3266 24.7998 46.2067 28.1986 47.1795 31.9053C47.6348 33.6467 47.8343 35.3975 47.8717 37.1513C45.9199 35.4441 43.9618 33.7369 41.8976 32.1728C39.3876 30.2697 36.5502 28.6589 33.3823 28.2266C32.6465 28.124 31.9044 28.4039 31.6893 29.1844C31.5115 29.825 31.9075 30.7703 32.6496 30.8729C35.6117 31.2772 38.1685 32.7574 40.5101 34.5423C43.0263 36.4641 45.3711 38.6253 47.7657 40.6932C47.7283 41.2561 47.6784 41.8189 47.6192 42.3817C42.7863 43.1871 37.6135 41.9651 33.7253 38.9611C33.1391 38.5071 32.3534 38.3921 31.7797 38.9611C31.3057 39.4338 31.1904 40.4444 31.7797 40.9016C33.2296 42.021 34.801 42.9415 36.4536 43.6443C36.4505 43.6443 36.4505 43.6474 36.4473 43.6474C34.4892 44.6114 32.7057 46.0511 31.5833 47.6526C30.5699 49.1017 32.9583 50.4731 33.9592 49.0364C35.116 47.379 37.2518 46.2813 39.1008 45.566C39.7368 45.3142 40.4415 45.084 41.1462 45.0405H41.1587C41.4985 45.0187 41.8197 45.0405 42.1471 45.1276C42.225 45.1493 42.303 45.1711 42.3903 45.2053L42.4027 45.2146C42.4027 45.2146 42.4152 45.2209 42.4215 45.2209C43.2072 45.5256 44.0428 46.2439 43.8994 47.1364C43.678 48.5295 45.6798 49.7143 46.4063 48.1906C46.7804 47.4101 47.1889 46.3341 48.0245 45.9516C49.1376 45.4354 49.3465 46.9281 49.2904 47.7397C49.1688 49.5744 47.9029 51.011 46.4187 51.9564H46.4063C46.2317 52.0745 46.0446 52.174 45.8669 52.2736C45.2526 52.6063 44.6072 52.883 43.9399 53.1194C43.996 53.1225 44.0459 53.1225 44.0989 53.1256C44.9938 53.1536 45.8575 53.1598 46.6994 53.1536C47.5599 53.1474 48.3924 53.1194 49.2 53.0727C49.2935 53.0696 49.3902 53.0634 49.4806 53.0572C50.2445 53.0105 50.9866 52.9484 51.7038 52.8706C52.1434 52.8426 52.5862 52.7835 53.004 52.7307C53.2129 52.7058 53.4218 52.6778 53.6182 52.6405C54.2138 52.5628 54.7875 52.4757 55.3487 52.37C55.7166 52.3078 56.0815 52.2362 56.4338 52.1647C57.4721 51.0328 58.2765 49.6832 58.7442 48.4518C58.8347 48.2217 58.9095 47.9916 58.975 47.749C59.4177 46.2128 59.4271 44.5119 58.9656 42.9881ZM23.7477 7.59096C23.3299 8.39014 22.9651 9.23597 22.6907 10.1036C22.0515 9.89521 21.403 9.81747 20.7544 9.87344C20.5985 9.87966 20.4426 9.89521 20.2898 9.91387C20.3272 8.99341 20.5268 8.1507 21.4341 7.63449C22.0671 7.27377 23.1023 7.12451 23.8693 7.36706C23.8256 7.4417 23.7882 7.51633 23.7477 7.59096ZM56.5429 45.7868C56.4556 47.3448 55.6979 48.8374 54.6846 49.9911C54.5287 50.1652 54.3541 50.3518 54.167 50.5384C53.2877 51.4153 52.1185 52.2176 50.8868 51.8351C50.7871 51.8009 50.6904 51.7884 50.6 51.7791C50.6655 51.6796 50.7434 51.5832 50.7995 51.4713C51.0521 51.0888 51.2735 50.6814 51.4606 50.243C52.2744 48.3119 52.3835 45.3484 50.6561 43.8868C50.8214 43.8215 50.9742 43.722 51.1301 43.579C52.0312 42.7238 53.6494 41.0539 55.0463 41.822C56.3122 42.5248 56.6209 44.4901 56.5429 45.7868Z" fill="#FF1A56"/>
<path d="M68.6587 50.2802L68.2346 49.5246L68.2222 49.5028L68.1442 49.3629V49.3566L67.7015 48.5761C67.5393 48.2869 67.1776 48.175 66.8814 48.3211L66.1549 48.6818L65.8837 48.8187H65.8743C65.8587 48.8311 65.8462 48.8404 65.8307 48.8498C65.8151 48.856 65.3474 49.1607 64.4556 49.5401C64.4431 49.5463 64.4307 49.5494 64.4182 49.5557C63.3144 50.0812 62.0516 50.5912 60.6298 51.0514C60.5145 51.0856 60.4022 51.126 60.2837 51.1602C59.2236 51.5054 58.0699 51.8164 56.8227 52.0838C56.6949 52.1118 56.5639 52.1367 56.433 52.1647C56.0806 52.2362 55.7158 52.3077 55.3479 52.3699C54.7867 52.4756 54.213 52.5627 53.6174 52.6404C53.421 52.6777 53.2121 52.7057 53.0032 52.7306C52.5854 52.7835 52.1426 52.8426 51.703 52.8705C50.9858 52.9483 50.2437 53.0105 49.4798 53.0571C49.3894 53.0633 49.2927 53.0696 49.1992 53.0727C48.3916 53.1193 47.5591 53.1473 46.6986 53.1535C45.8567 53.1597 44.993 53.1535 44.0981 53.1255C44.0451 53.1224 43.9952 53.1224 43.9391 53.1193H43.936C43.2064 53.0975 42.4581 53.0696 41.6879 53.0167H41.6786C41.3917 53.0043 41.0955 52.9856 40.7962 52.9483L40.6278 52.939C40.2318 52.9079 39.8327 52.8705 39.4274 52.8301C33.79 52.2362 28.9353 52.2921 24.7665 52.7835H24.7634C24.2021 52.8488 23.6533 52.9234 23.1171 53.0043C22.6649 53.0664 22.2253 53.138 21.795 53.2126C21.2587 53.3059 20.7349 53.4085 20.2204 53.5205C19.8525 53.5951 19.4877 53.6759 19.1291 53.763C18.7082 53.8625 18.2966 53.9683 17.9006 54.0802C17.4142 54.2108 16.9403 54.3476 16.4819 54.4938C16.0548 54.6275 15.6369 54.7674 15.2347 54.9136C12.9898 55.6941 11.0878 56.6021 9.46953 57.5599H9.45706C9.12655 57.7589 8.82098 57.9455 8.52165 58.1321C4.90165 60.4488 2.91236 62.8774 2.01749 64.1803L1.89589 64.3607L0.9636 65.7352C0.779638 66.0088 0.83888 66.3789 1.10079 66.5779L2.75957 67.8373C3.04331 68.055 3.45177 67.9866 3.65132 67.6911L4.15956 66.9417L4.16891 66.9324L4.36535 66.6401L4.37782 66.6214L4.39653 66.5934L4.41835 66.5592C4.66156 66.1456 5.75286 64.4353 8.13814 62.4887C8.4437 62.243 8.77109 61.9943 9.12031 61.7393V71.9731H2.83441C2.50078 71.9731 2.22951 72.2437 2.22951 72.5764V74.6661C2.22951 74.9988 2.50078 75.2663 2.83441 75.2663H66.8097C67.1433 75.2663 67.4146 74.9988 67.4146 74.6661V72.5764C67.4146 72.2437 67.1433 71.9731 66.8097 71.9731H63.2988V53.6417C64.4743 53.2002 65.5532 52.7213 66.5384 52.2206C66.738 52.1211 66.9126 52.0309 67.0623 51.9501C67.1309 51.9128 67.1963 51.8755 67.2525 51.8412L67.2961 51.8164L67.4738 51.7075L67.6453 51.6018L67.6734 51.5831L68.4435 51.1136C68.7273 50.9394 68.8239 50.5725 68.6587 50.2802ZM21.8387 71.9731H12.4223V59.7242C13.7163 59.0556 15.2534 58.3902 17.0525 57.8118L17.3986 57.6998C18.4587 57.3578 19.6093 57.0468 20.8596 56.7794C21.1777 56.7141 21.505 56.6457 21.8387 56.5835V71.9731ZM34.5601 71.9731H25.1406V56.1295C25.1406 56.1108 25.1406 56.0953 25.1375 56.0766C25.4119 56.0424 25.6956 56.0113 25.9763 55.9895C28.2774 55.747 30.7967 55.6475 33.5811 55.7376C33.9022 55.747 34.2296 55.7563 34.5601 55.7719V71.9731ZM47.2754 71.9731H37.8621V55.9989C37.9931 56.0082 38.124 56.0237 38.255 56.0362C41.5164 56.3782 44.5159 56.5026 47.2754 56.4529V71.9731ZM59.9969 71.9731H50.5774V56.3005C51.9773 56.1979 53.3056 56.0486 54.5653 55.8589C55.5786 55.7159 56.5359 55.5417 57.4588 55.3427C58.2632 55.1779 59.0459 54.9913 59.7817 54.783C59.8534 54.7643 59.9251 54.7426 59.9969 54.7239V71.9731Z" fill="#FF1A56"/>
</svg>
