<svg width="172" height="250" viewBox="0 0 172 250" fill="none" xmlns="http://www.w3.org/2000/svg">
<path d="M7.8745 228.905C6.5723 228.905 5.57649 228.89 4.88709 228.86L1.17198 228.814C0.903882 228.814 0.643442 228.692 0.405981 228.448C0.16086 228.204 0.0459601 227.945 0.0459601 227.679V213.311L0 209.586C0 208.344 0.0306401 206.783 0.0919202 204.901C0.0919202 204.505 0.13788 203.492 0.229801 201.854V200.81C0.229801 199.965 0.398321 199.279 0.727702 198.761C0.880902 198.487 1.11836 198.35 1.4554 198.35C2.93379 198.35 4.55005 198.38 6.30419 198.441C6.54932 198.471 6.89402 198.487 7.34596 198.487C8.34176 198.487 9.08478 198.502 9.56736 198.532H13.0757C13.6655 198.532 14.1251 198.609 14.4545 198.761C14.9983 199.066 15.2664 199.759 15.2664 200.848L15.2205 201.214C15.2205 201.305 15.1898 201.534 15.1285 201.9C15.0366 202.357 14.9907 202.692 14.9907 202.898C14.9907 203.233 15.0366 203.652 15.1285 204.17C15.1898 204.535 15.2205 204.779 15.2205 204.901L15.2664 205.175V217.859C15.2664 218.103 15.4043 218.255 15.6724 218.316C15.7643 218.347 15.9558 218.362 16.2622 218.362H19.5713C20.3833 218.332 21.6242 218.316 23.2865 218.316C23.6158 218.316 23.8916 218.415 24.0984 218.613C24.3129 218.811 24.4125 219.017 24.4125 219.23V228.006C24.4125 228.25 24.2899 228.448 24.0525 228.6C23.7844 228.722 23.4626 228.799 23.1026 228.829C22.712 228.92 22.0915 228.966 21.2489 228.966H14.6843C11.5743 228.966 9.30692 228.951 7.88982 228.92L7.8745 228.905Z" fill="#FDF4FF"/>
<path d="M30.4717 228.882C30.173 228.837 29.8053 228.799 29.384 228.768L28.4341 228.54C28.2809 228.509 28.166 228.471 28.0971 228.425C28.0205 228.38 27.9975 228.342 28.0281 228.311C28.0281 227.526 27.9822 226.475 27.8903 225.173C27.8903 224.715 27.8749 224.319 27.8443 223.969C27.8137 223.618 27.783 223.329 27.7524 223.085L27.6605 221.127C27.6605 220.609 27.6298 219.962 27.5685 219.17L27.5226 217.76C27.5226 216.61 27.5073 215.711 27.4766 215.079C27.446 214.439 27.4307 213.106 27.4307 211.079C27.4307 209.167 27.446 207.202 27.4766 205.168C27.5073 203.141 27.5992 201.214 27.7447 199.393C27.7447 199.058 28.1047 198.784 28.8324 198.578C29.2844 198.517 30.0427 198.487 31.0998 198.487C33.5434 198.487 35.3435 198.441 36.4925 198.35C40.0544 198.289 42.743 198.258 44.5508 198.258H46.5424C49.0166 198.319 50.9163 198.411 52.2491 198.533C52.7317 198.533 53.0764 199.112 53.2909 200.262C53.3828 200.475 53.49 201.016 53.6049 201.9C53.6969 202.357 53.8194 202.913 53.965 203.583C53.9956 203.766 54.0033 203.941 53.9879 204.109C53.9726 204.276 53.965 204.376 53.965 204.406C53.9343 204.711 53.7658 204.863 53.4671 204.863C53.3445 204.833 53.1683 204.817 52.9232 204.817C51.6516 204.817 50.0967 204.924 48.2583 205.137L45.8607 205.32C44.8649 205.442 44.0759 205.518 43.509 205.549C43.4171 205.549 43.2946 205.732 43.149 206.097C43.0265 206.493 42.8886 207.4 42.743 208.824L42.6511 209.959C42.6511 210.356 42.6971 210.607 42.789 210.706C42.8809 210.813 43.0801 210.866 43.3788 210.866H47.408C48.5876 210.866 49.9281 210.942 51.4372 211.095H51.981C52.3717 211.186 52.6168 211.338 52.7087 211.552C52.8313 211.734 52.9079 211.933 52.9385 212.146L53.1224 216.191V216.328C53.1224 216.846 52.5785 217.143 51.4908 217.235C50.855 217.387 49.6524 217.463 47.8676 217.463C46.3279 217.463 45.3321 217.448 44.8802 217.417C44.0069 217.417 43.4784 217.433 43.2946 217.463C42.9652 217.555 42.7507 217.73 42.6588 217.989C42.5669 218.248 42.5209 218.682 42.5209 219.284C42.5209 219.68 42.4903 220.236 42.429 220.967C42.3983 221.333 42.383 221.904 42.383 222.697C44.344 222.697 45.7917 222.666 46.7339 222.605C47.7604 222.514 49.2081 222.468 51.0771 222.468C51.1997 222.468 51.3223 222.575 51.4372 222.788C51.5904 223.093 51.8278 223.771 52.1649 224.837C52.3487 225.447 52.5249 226.201 52.7087 227.107C52.77 227.321 52.8006 227.549 52.8006 227.793C52.8006 228.433 52.5019 228.745 51.8968 228.745C51.1078 228.745 50.0584 228.776 48.7255 228.837C48.0285 228.898 46.9407 228.928 45.4623 228.928C42.2911 228.928 39.9088 228.943 38.3079 228.974H31.1534C31.0002 228.974 30.7781 228.951 30.4717 228.905V228.882Z" fill="#FDF4FF"/>
<path d="M69.3297 227.9C69.1765 227.564 69.0999 226.963 69.0999 226.079C69.0999 223.443 69.0693 221.097 69.008 219.032C68.9161 216.061 68.8701 212.923 68.8701 209.624V199.622C68.8701 199.348 69.0003 199.081 69.2531 198.83C69.5059 198.571 69.774 198.441 70.0421 198.441L75.2509 198.487C76.2161 198.517 77.4876 198.532 79.0579 198.532C81.3253 198.532 83.0718 198.517 84.3127 198.487L85.9903 198.441C87.798 198.38 89.2994 198.35 90.4714 198.35C92.3711 198.35 94.1865 198.624 95.9023 199.165C97.9246 199.774 99.5715 200.818 100.835 202.303C102.252 203.911 102.965 206.074 102.965 208.801C102.965 213.41 101.801 216.739 99.4796 218.804C97.4267 220.746 94.3627 221.714 90.2875 221.714H84.0829C84.1136 222.415 84.1289 223.154 84.1289 223.938C84.1289 224.213 84.1289 224.54 84.1059 224.913C84.0906 225.294 84.0829 225.797 84.0829 226.437C84.0829 227.435 83.8684 228.075 83.4471 228.349C83.1178 228.623 82.4973 228.76 81.5934 228.76C80.2682 228.76 79.3414 228.776 78.8281 228.806C76.7446 228.806 75.0824 228.837 73.8491 228.898H70.3179C69.8046 228.898 69.4753 228.562 69.3221 227.9H69.3297ZM86.5341 216.267C87.1699 216.267 87.6372 215.658 87.9359 214.446C88.1734 213.631 88.3572 212.412 88.4798 210.813C88.541 209.937 88.5717 208.946 88.5717 207.857V207.354C88.5717 206.866 88.4951 206.143 88.3495 205.175C88.227 204.627 88.0891 204.2 87.9436 203.88C87.7904 203.56 87.5989 203.294 87.3537 203.088C87.1086 202.814 86.8405 202.677 86.5418 202.677C86.3886 202.677 86.2584 202.738 86.1588 202.859C86.0515 202.981 85.952 203.134 85.8677 203.317C85.5383 203.865 85.2319 205.076 84.9638 206.95C84.8719 207.499 84.7953 208.314 84.734 209.403C84.5808 211.072 84.5119 213.296 84.5119 216.084C84.5732 216.145 84.6498 216.191 84.734 216.221L85.2779 216.267H86.5494H86.5341Z" fill="#FDF4FF"/>
<path d="M105.923 228.083C105.892 227.991 105.877 227.839 105.877 227.626C105.877 227.321 105.938 226.871 106.061 226.262C106.122 225.866 106.176 225.561 106.222 225.333C106.268 225.104 106.306 224.929 106.337 224.807C107.24 220.533 108.129 216.778 109.01 213.532L112.181 199.165C112.181 199.104 112.227 199.013 112.319 198.891C112.411 198.769 112.518 198.693 112.633 198.662H112.863C112.863 198.662 112.909 198.708 113.001 198.708C113.361 198.708 113.774 198.662 114.226 198.571C114.678 198.479 115.084 198.434 115.452 198.434C116.118 198.434 116.731 198.479 117.306 198.571C117.574 198.571 117.88 198.586 118.21 198.616C118.539 198.647 118.891 198.662 119.251 198.662C119.374 198.662 119.504 198.632 119.657 198.571H121.511L122.599 198.525C122.813 198.495 123.066 198.479 123.365 198.479C123.61 198.479 123.725 198.464 123.725 198.434H127.892C129.585 198.434 130.703 198.464 131.247 198.525C131.339 198.525 131.469 198.533 131.63 198.548C131.798 198.563 131.89 198.601 131.921 198.662C132.136 198.662 132.342 198.647 132.557 198.616C132.771 198.586 132.963 198.571 133.147 198.571C133.568 198.479 133.974 198.434 134.372 198.434C134.556 198.434 134.732 198.479 134.916 198.571C135.1 198.662 135.291 198.708 135.506 198.708L135.736 198.662H135.874C135.966 198.723 136.065 198.807 136.165 198.914C136.272 199.02 136.326 199.104 136.326 199.165L139.497 213.532C140.462 217.075 141.335 220.838 142.124 224.807C142.124 224.99 142.185 225.188 142.308 225.401C142.339 225.614 142.385 225.904 142.446 226.262C142.507 226.628 142.538 226.932 142.538 227.169C142.568 227.29 142.584 227.458 142.584 227.671C142.584 228.098 142.492 228.441 142.308 228.715C142.185 228.898 142.009 228.989 141.764 228.989H141.174C140.722 228.989 140.378 228.974 140.133 228.943H136.915C136.67 228.943 136.555 228.928 136.555 228.898H133.706V228.806C133.583 228.745 133.43 228.715 133.254 228.715C133.223 228.745 133.193 228.776 133.162 228.806C133.162 228.867 133.131 228.898 133.07 228.898H132.572C132.419 228.837 132.12 228.806 131.668 228.806C130.764 228.745 130.052 228.715 129.539 228.715C129.355 228.441 129.171 227.9 128.972 227.077C128.773 226.262 128.574 225.348 128.359 224.35C128.298 223.862 128.237 223.535 128.175 223.352C127.539 223.474 126.712 223.535 125.686 223.535H122.966L122.652 224.99C122.262 226.993 121.94 228.235 121.703 228.715C121.58 228.715 121.434 228.745 121.251 228.806C121.189 228.837 121.113 228.867 121.021 228.898H120.837C120.653 228.898 120.523 228.867 120.431 228.806C120.37 228.745 120.293 228.715 120.201 228.715L118.164 228.806H116.762C116.639 228.867 116.494 228.898 116.31 228.898H111.553C111.224 228.928 110.542 228.943 109.515 228.943H108.336C108.091 228.974 107.746 228.989 107.294 228.989H106.75C106.36 228.989 106.084 228.684 105.938 228.083H105.923ZM127.34 215.627C127.248 215.201 127.095 214.401 126.888 213.22C126.827 212.915 126.674 212.1 126.436 210.767L126.076 208.588C125.985 207.979 125.893 207.453 125.801 206.996L125.755 206.402C125.663 206.25 125.617 206.112 125.617 205.991L125.571 205.716C125.54 205.777 125.525 205.869 125.525 205.991C125.525 206.112 125.494 206.189 125.433 206.219V206.402L125.341 206.996C125.31 207.209 125.272 207.446 125.226 207.697C125.18 207.956 125.127 208.238 125.065 208.535L124.836 209.807C124.506 211.719 124.307 212.824 124.246 213.129C124.215 213.464 124.138 213.959 124.016 214.629C123.955 214.843 123.893 215.163 123.832 215.582L123.472 217.669H125.778L126.092 217.577H126.184C126.544 217.577 126.819 217.608 126.996 217.669C127.118 217.669 127.225 217.692 127.333 217.737C127.44 217.783 127.539 217.821 127.624 217.852L127.31 215.627H127.34Z" fill="#FDF4FF"/>
<path d="M154.739 228.905C153.437 228.905 152.441 228.89 151.751 228.86L148.036 228.814C147.768 228.814 147.508 228.692 147.27 228.448C147.025 228.204 146.91 227.945 146.91 227.679V213.311L146.864 209.586C146.864 208.344 146.895 206.783 146.956 204.901C146.956 204.505 147.002 203.492 147.094 201.854V200.81C147.094 199.965 147.263 199.279 147.592 198.761C147.745 198.487 147.983 198.35 148.32 198.35C149.798 198.35 151.414 198.38 153.168 198.441C153.414 198.471 153.758 198.487 154.21 198.487C155.206 198.487 155.949 198.502 156.432 198.532H159.94C160.53 198.532 160.989 198.609 161.319 198.761C161.863 199.066 162.131 199.759 162.131 200.848L162.085 201.214C162.085 201.305 162.054 201.534 161.993 201.9C161.901 202.357 161.855 202.692 161.855 202.898C161.855 203.233 161.901 203.652 161.993 204.17C162.054 204.535 162.085 204.779 162.085 204.901L162.131 205.175V217.859C162.131 218.103 162.269 218.255 162.537 218.316C162.629 218.347 162.82 218.362 163.126 218.362H166.436C167.248 218.332 168.488 218.316 170.151 218.316C170.48 218.316 170.756 218.415 170.963 218.613C171.177 218.811 171.277 219.017 171.277 219.23V228.006C171.277 228.25 171.154 228.448 170.917 228.6C170.649 228.722 170.327 228.799 169.967 228.829C169.576 228.92 168.956 228.966 168.113 228.966H161.549C158.439 228.966 156.171 228.951 154.754 228.92L154.739 228.905Z" fill="#FDF4FF"/>
<path d="M2.38471 246.731L1.32762 249.672H0.125L3.63329 239.966H5.03507L8.6889 249.672H7.43266L6.33728 246.731H2.38471ZM5.96194 245.558C4.96613 242.876 4.49121 241.612 4.30737 240.949H4.29971C4.13119 241.581 3.57201 243.25 2.75239 245.558H5.96194Z" fill="#FDF4FF"/>
<path d="M11.0387 239.966V245.482C11.0387 248.026 12.2949 248.727 13.5358 248.727C15.0295 248.727 15.9334 247.889 15.9334 245.482V239.966H17.0901V245.466C17.0901 248.62 15.7036 249.877 13.4975 249.877C11.2914 249.877 9.88965 248.597 9.88965 245.573V239.966H11.0463H11.0387Z" fill="#FDF4FF"/>
<path d="M22.0159 249.672L18.4463 239.967H19.7102L21.5639 245.139C22.2457 247.059 22.5214 247.935 22.6746 248.476H22.6976C22.8278 248.004 23.1955 246.967 23.7394 245.36L25.7003 239.959H26.9336L23.3104 249.664H22.0082L22.0159 249.672Z" fill="#FDF4FF"/>
<path d="M34.4246 245.154H29.5299V248.514H34.9302L34.777 249.672H28.3809V239.966H34.6851V241.124H29.5299V243.996H34.4246V245.154Z" fill="#FDF4FF"/>
<path d="M37.9322 245.489V249.672H36.7832V239.966H40.6822C42.352 239.966 43.4781 240.88 43.4781 242.602C43.4781 243.775 42.9878 244.606 41.9844 244.918C42.5206 245.093 43.2636 245.581 43.2636 247.28V247.706C43.2636 248.453 43.2636 249.268 43.3555 249.679H42.1759C42.0533 249.253 42.0686 248.521 42.0686 247.706V247.386C42.0686 245.954 41.6014 245.505 40.1689 245.505H37.9245L37.9322 245.489ZM37.9322 244.362H40.3911C41.6703 244.362 42.2908 243.829 42.2908 242.678C42.2908 241.619 41.6626 241.086 40.437 241.086H37.9322V244.362Z" fill="#FDF4FF"/>
<path d="M53.2148 249.672H52.3339C52.2956 249.428 52.2496 248.666 52.242 248.24C51.6981 249.283 50.8708 249.877 49.2699 249.877C46.6961 249.877 45.1182 247.866 45.1182 244.85C45.1182 241.993 46.7497 239.761 49.4691 239.761C51.9126 239.761 52.9544 241.239 53.2608 242.671H52.0735C51.7594 241.764 51.047 240.888 49.4614 240.888C47.4162 240.888 46.3361 242.595 46.3361 244.766C46.3361 247.051 47.4315 248.735 49.4308 248.735C51.1313 248.735 52.0964 247.706 52.0964 245.794V245.505H49.4461V244.354H53.2071V249.664L53.2148 249.672Z" fill="#FDF4FF"/>
<path d="M55.4678 249.672V239.967H56.8466C58.685 243.006 61.3047 246.99 61.772 247.988H61.795C61.7184 246.724 61.7337 245.193 61.7337 243.616V239.959H62.8137V249.664H61.5115C60.3012 247.729 57.0994 242.496 56.5172 241.368H56.4942C56.5555 242.618 56.5555 243.989 56.5555 245.711V249.672H55.4754H55.4678Z" fill="#FDF4FF"/>
<path d="M71.4236 245.154H66.5289V248.514H71.9292L71.776 249.672H65.3799V239.966H71.6841V241.124H66.5289V243.996H71.4236V245.154Z" fill="#FDF4FF"/>
<path d="M78.4166 245.489V249.672H77.2676V239.966H81.1665C82.8364 239.966 83.9624 240.88 83.9624 242.602C83.9624 243.775 83.4722 244.606 82.4687 244.918C83.0049 245.093 83.748 245.581 83.748 247.28V247.706C83.748 248.453 83.748 249.268 83.8399 249.679H82.6602C82.5377 249.253 82.553 248.521 82.553 247.706V247.386C82.553 245.954 82.0857 245.505 80.6533 245.505H78.4089L78.4166 245.489ZM78.4166 244.362H80.8754C82.147 244.362 82.7751 243.829 82.7751 242.678C82.7751 241.619 82.147 241.086 80.9214 241.086H78.4166V244.362Z" fill="#FDF4FF"/>
<path d="M86.1445 239.966H87.3012V243.89H92.2189V239.966H93.3756V249.672H92.2189V245.055H87.3012V249.672H86.1445V239.966Z" fill="#FDF4FF"/>
<path d="M104 244.789C104 247.531 102.438 249.877 99.703 249.877C96.9684 249.877 95.4287 247.63 95.4287 244.789C95.4287 242.1 97.1139 239.768 99.7336 239.768C102.353 239.768 104 242.1 104 244.796V244.789ZM96.6467 244.743C96.6467 246.83 97.7191 248.72 99.7413 248.72C101.764 248.72 102.775 246.914 102.775 244.811C102.775 242.709 101.71 240.911 99.6647 240.911C97.765 240.911 96.6467 242.694 96.6467 244.743ZM100.278 237.163L101.955 239.037H100.798L99.6264 237.795L98.4697 239.037H97.3361L98.9983 237.163H100.285H100.278Z" fill="#FDF4FF"/>
<path d="M106 249.672V239.967H107.379C109.217 243.006 111.837 246.99 112.304 247.988H112.327C112.251 246.724 112.266 245.193 112.266 243.616V239.959H113.346V249.664H112.044C110.833 247.729 107.632 242.496 107.049 241.368H107.026C107.088 242.618 107.088 243.989 107.088 245.711V249.672H106.008H106Z" fill="#FDF4FF"/>
<path d="M121.956 245.154H117.061V248.514H122.461L122.308 249.672H115.912V239.966H122.216V241.124H117.061V243.996H121.956V245.154Z" fill="#FDF4FF"/>
<path d="M127.473 245.604V246.731H123.804V245.604H127.473Z" fill="#FDF4FF"/>
<path d="M130.612 246.731L129.555 249.672H128.353L131.861 239.966H133.263L136.916 249.672H135.66L134.557 246.731H130.605H130.612ZM134.182 245.558C133.186 242.876 132.711 241.612 132.527 240.949H132.512C132.343 241.581 131.784 243.25 130.965 245.558H134.182Z" fill="#FDF4FF"/>
<path d="M138.419 239.966H139.568V248.506H144.493L144.317 249.672H138.427V239.966H138.419Z" fill="#FDF4FF"/>
<path d="M145.932 239.966H149.762C151.792 239.966 152.711 241.216 152.711 242.823C152.711 244.728 151.608 245.794 149.8 245.794H147.088V249.672H145.932V239.966ZM147.088 244.636H149.639C150.757 244.636 151.546 244.24 151.546 242.846C151.546 241.749 150.926 241.117 149.639 241.117H147.088V244.636Z" fill="#FDF4FF"/>
<path d="M160.593 245.154H155.698V248.514H161.098L160.945 249.672H154.549V239.966H160.853V241.124H155.698V243.996H160.593V245.154Z" fill="#FDF4FF"/>
<path d="M163.434 246.845C163.732 247.98 164.43 248.78 166.038 248.78C167.647 248.78 168.26 248.041 168.26 247.135C168.26 246.182 167.808 245.596 165.709 245.169C163.25 244.674 162.668 243.76 162.668 242.434C162.668 240.728 164.031 239.753 165.808 239.753C168.466 239.753 169.087 241.406 169.179 242.389H168.007C167.838 241.726 167.494 240.858 165.77 240.858C164.598 240.858 163.84 241.33 163.84 242.305C163.84 243.097 164.177 243.6 166.03 243.966C168.98 244.56 169.454 245.649 169.454 246.99C169.454 248.536 168.42 249.862 165.962 249.862C163.679 249.862 162.53 248.628 162.262 246.838H163.441L163.434 246.845Z" fill="#FDF4FF"/>
<path d="M144.859 105.311C143.534 100.977 140.508 96.4897 135.743 95.5756C131.285 94.7147 127.448 96.5659 124.123 99.1789C124.123 99.1789 124.118 99.184 124.108 99.1941C124.629 91.2333 124.376 83.3335 122.177 75.4642C119.742 66.8026 115.452 58.7885 109.699 51.8866C110.795 51.5057 111.867 51.0639 112.916 50.5535C118.868 47.6815 123.089 42.3718 124.728 36.0184C126.574 28.8652 125.326 21.5367 123.809 14.4596C124.1 13.7207 124.246 12.9284 124.2 12.1209C124.108 10.5744 123.472 9.24131 122.239 8.28906C121.289 7.56536 120.056 7.16922 118.845 7.22255C116.723 7.32158 114.985 8.57854 113.108 9.42414C112.097 9.82789 111.063 10.1478 110.006 10.3916C102.032 1.35672 88.458 -2.5132 77.0216 1.70715C71.3532 3.80209 66.5197 7.39014 62.7586 11.9533C62.7586 11.9609 62.751 11.9685 62.7433 11.9762C62.6284 12.1133 62.5135 12.2504 62.4063 12.3951C58.5609 10.3383 52.9155 10.8563 49.2693 12.9436C44.4129 15.7318 43.0724 20.6225 43.126 25.8789C43.1337 26.2446 43.1873 26.5798 43.2792 26.8769C39.5028 29.5355 36.8678 33.8778 36.8448 38.898C36.8142 50.104 47.2548 56.9068 57.4426 55.6194C56.7149 61.8052 54.2024 67.8538 52.6857 73.7958C50.8779 80.8425 49.4685 87.9957 48.5493 95.2023C47.6837 102.272 46.979 109.775 47.9825 116.875C48.0591 117.386 48.1433 117.866 48.2506 118.376C43.5167 120.395 39.6024 124.836 39.8705 130.214C39.8935 130.748 39.9548 131.311 40.062 131.822C40.1616 132.393 40.2995 132.957 40.491 133.498C41.617 133.14 42.7813 132.805 43.9763 132.485C44.9491 132.21 45.9602 131.951 46.9943 131.708C46.9867 131.685 46.9713 131.662 46.956 131.639V131.608C46.9024 131.395 46.8181 131.205 46.7645 130.991C46.7109 130.831 46.6803 130.694 46.6573 130.557C46.6266 130.481 46.6266 130.428 46.6266 130.374V130.344C46.6037 130.131 46.6037 129.917 46.6037 129.864V129.78C46.6037 129.674 46.6037 129.483 46.6266 129.354V129.323C46.6573 129.216 46.6803 129.079 46.7109 128.95C46.7952 128.676 46.8718 128.409 46.956 128.142C46.956 128.112 47.0096 128.089 47.0326 128.005C47.1935 127.739 47.3314 127.441 47.4922 127.198C47.5458 127.122 47.5995 127.007 47.6531 126.931C47.7373 126.55 48.5493 125.964 48.8174 125.72C48.871 125.666 48.9553 125.613 49.0395 125.56C49.254 125.423 49.4685 125.293 49.683 125.126C49.8975 124.996 50.1426 124.889 50.3877 124.752C50.9852 126.017 51.6286 127.228 52.3104 128.409C52.7087 129.072 53.1147 129.719 53.5436 130.359C54.6007 130.176 55.6808 130.001 56.7915 129.849C58.109 129.651 59.4572 129.468 60.836 129.308C60.3381 128.607 59.8708 127.876 59.4189 127.144C58.469 125.56 57.6034 123.945 56.8528 122.52C54.0645 117.332 54.2254 111.627 54.4399 105.906C54.662 100.093 55.3054 94.311 56.3395 88.5823C57.4426 82.3508 58.9593 76.1879 60.6904 70.0859C62.4446 63.9001 64.666 57.7981 64.3672 51.2924C64.26 49.3041 62.2607 47.232 60.0929 48.0395C53.2832 50.622 44.3823 48.0395 43.6546 39.835C43.0034 32.9789 50.472 28.3776 56.171 32.4684C57.9022 33.733 60.7134 32.438 61.15 30.4802C62.0692 26.336 63.7468 22.2223 66.152 18.619V18.5962C66.7725 17.682 67.4236 16.7907 68.1819 15.9299C70.9625 12.5399 74.5627 9.77456 78.8064 8.19003C88.4274 4.55626 99.2433 7.96911 105.708 15.7166C105.953 16.0137 106.214 16.2422 106.482 16.4174C106.49 16.4174 106.49 16.425 106.497 16.425C107.279 17.2325 109.998 17.263 111.247 17.004C111.89 16.8669 112.533 16.7069 113.162 16.5165C113.614 17.0269 114.157 17.4611 114.785 17.8039C115.697 18.2991 116.723 18.5733 117.758 18.5885C119.573 28.2024 120.025 39.3094 110.052 44.4743C105.938 46.6074 101.105 47.2701 96.524 47.4377C91.6369 47.6129 85.4782 47.4606 82.9811 42.5013C81.0354 38.6314 75.1985 42.029 77.1442 45.8913C80.369 52.2904 87.7226 54.1796 94.3792 54.1948C97.0142 54.2025 99.6799 54.0501 102.307 53.6692C102.361 53.7378 102.422 53.8063 102.483 53.8749C108.895 60.7539 113.514 69.0803 115.904 78.1609C117.022 82.427 117.512 86.7159 117.604 91.0124C112.809 86.8302 107.999 82.6479 102.928 78.8161C96.7615 74.1539 89.7908 70.2078 82.0083 69.1489C80.2005 68.8975 78.3774 69.5831 77.8489 71.4952C77.4123 73.0645 78.3851 75.3804 80.2082 75.6318C87.4852 76.6221 93.7664 80.2483 99.5191 84.621C105.701 89.3288 111.461 94.6233 117.344 99.6893C117.252 101.068 117.129 102.447 116.984 103.826C105.111 105.799 92.4029 102.805 82.8509 95.4461C81.4108 94.3338 79.4805 94.052 78.071 95.4461C76.9067 96.604 76.6233 99.0798 78.071 100.2C81.6329 102.942 85.4936 105.197 89.5534 106.919C89.5457 106.919 89.5457 106.926 89.5381 106.926C84.7276 109.288 80.346 112.815 77.5884 116.738C75.0989 120.288 80.9665 123.648 83.4254 120.128C86.2672 116.068 91.5144 113.379 96.0567 111.627C97.6194 111.01 99.3506 110.446 101.082 110.339H101.112C101.947 110.286 102.736 110.339 103.541 110.552C103.732 110.606 103.924 110.659 104.138 110.743L104.169 110.766C104.169 110.766 104.199 110.781 104.215 110.781C106.145 111.528 108.198 113.287 107.846 115.474C107.302 118.887 112.219 121.789 114.004 118.056C114.923 116.144 115.927 113.508 117.98 112.571C120.714 111.307 121.228 114.963 121.09 116.952C120.791 121.446 117.681 124.966 114.035 127.282H114.004C113.575 127.571 113.116 127.815 112.679 128.059C111.17 128.874 109.584 129.552 107.945 130.131C108.083 130.138 108.206 130.138 108.336 130.146C110.534 130.214 112.656 130.23 114.724 130.214C116.838 130.199 118.884 130.131 120.868 130.016C121.097 130.009 121.335 129.993 121.557 129.978C123.434 129.864 125.257 129.712 127.019 129.521C128.099 129.453 129.186 129.308 130.213 129.178C130.726 129.117 131.239 129.049 131.722 128.957C133.185 128.767 134.594 128.554 135.973 128.295C136.877 128.142 137.773 127.967 138.639 127.792C141.19 125.019 143.166 121.713 144.315 118.696C144.537 118.132 144.721 117.569 144.882 116.974C145.969 113.211 145.992 109.044 144.859 105.311ZM58.3388 18.5962C57.3124 20.554 56.4161 22.6261 55.7421 24.7515C54.1718 24.2411 52.5785 24.0506 50.9852 24.1877C50.6022 24.203 50.2192 24.2411 49.8438 24.2868C49.9358 22.0318 50.426 19.9674 52.6551 18.7028C54.2101 17.8191 56.7532 17.4535 58.6375 18.0477C58.5303 18.2305 58.4384 18.4133 58.3388 18.5962ZM138.907 112.167C138.692 115.984 136.831 119.641 134.342 122.467C133.959 122.894 133.53 123.351 133.07 123.808C130.91 125.956 128.037 127.921 125.012 126.984C124.766 126.901 124.529 126.87 124.307 126.847C124.468 126.603 124.659 126.367 124.797 126.093C125.418 125.156 125.961 124.158 126.421 123.084C128.42 118.353 128.688 111.093 124.445 107.513C124.851 107.353 125.226 107.109 125.609 106.759C127.823 104.664 131.798 100.573 135.23 102.455C138.34 104.176 139.098 108.991 138.907 112.167Z" fill="#FF1A56"/>
<path d="M168.674 123.175L167.632 121.324L167.602 121.271L167.41 120.928V120.913L166.323 119.001C165.924 118.292 165.036 118.018 164.308 118.376L162.523 119.26L161.857 119.595H161.834C161.795 119.625 161.765 119.648 161.727 119.671C161.688 119.686 160.539 120.433 158.348 121.362C158.318 121.378 158.287 121.385 158.257 121.4C155.545 122.688 152.443 123.937 148.95 125.065C148.666 125.148 148.39 125.248 148.099 125.331C145.495 126.177 142.661 126.939 139.597 127.594C139.283 127.662 138.961 127.723 138.639 127.792C137.774 127.967 136.877 128.142 135.974 128.295C134.595 128.554 133.185 128.767 131.722 128.957C131.24 129.049 130.726 129.117 130.213 129.178C129.187 129.308 128.099 129.453 127.019 129.521C125.257 129.712 123.434 129.864 121.557 129.978C121.335 129.993 121.098 130.009 120.868 130.016C118.884 130.131 116.839 130.199 114.725 130.214C112.656 130.23 110.535 130.214 108.336 130.146C108.206 130.138 108.083 130.138 107.946 130.131H107.938C106.145 130.077 104.307 130.009 102.415 129.879H102.392C101.687 129.849 100.96 129.803 100.224 129.712L99.8106 129.689C98.8378 129.613 97.8573 129.521 96.8615 129.422C83.0122 127.967 71.0855 128.104 60.8441 129.308H60.8364C59.4576 129.468 58.1095 129.651 56.792 129.849C55.6812 130.001 54.6012 130.176 53.5441 130.359C52.2266 130.588 50.9397 130.839 49.6758 131.113C48.7719 131.296 47.8757 131.494 46.9948 131.708C45.9607 131.951 44.9496 132.21 43.9767 132.485C42.7818 132.805 41.6175 133.14 40.4914 133.498C39.442 133.825 38.4156 134.168 37.4274 134.526C31.9122 136.438 27.2396 138.663 23.264 141.009H23.2334C22.4214 141.497 21.6708 141.954 20.9354 142.411C12.0421 148.086 7.15503 154.036 4.9566 157.228L4.65786 157.67L2.36752 161.037C1.91558 161.707 2.06112 162.614 2.70456 163.101L6.77969 166.186C7.47675 166.72 8.48021 166.552 8.97045 165.828L10.219 163.992L10.242 163.97L10.7246 163.253L10.7552 163.208L10.8012 163.139L10.8548 163.055C11.4523 162.042 14.1333 157.852 19.9932 153.084C20.7439 152.482 21.5482 151.872 22.4061 151.248V176.318H6.96353C6.14391 176.318 5.47748 176.981 5.47748 177.796V182.915C5.47748 183.731 6.14391 184.386 6.96353 184.386H164.132C164.951 184.386 165.618 183.731 165.618 182.915V177.796C165.618 176.981 164.951 176.318 164.132 176.318H155.507V131.41C158.394 130.329 161.045 129.156 163.465 127.929C163.956 127.685 164.385 127.464 164.752 127.266C164.921 127.175 165.082 127.083 165.22 127L165.327 126.939L165.763 126.672L166.185 126.413L166.254 126.367L168.146 125.217C168.843 124.79 169.08 123.892 168.674 123.175ZM53.6513 176.318H30.5181V146.311C33.697 144.673 37.4734 143.043 41.8932 141.626L42.7435 141.352C45.3479 140.514 48.1744 139.752 51.2461 139.097C52.0274 138.937 52.8317 138.769 53.6513 138.617V176.318ZM84.9042 176.318H61.7633V137.505C61.7633 137.459 61.7633 137.421 61.7556 137.375C62.4297 137.292 63.1268 137.215 63.8162 137.162C69.4693 136.568 75.6586 136.324 82.499 136.545C83.288 136.568 84.0923 136.591 84.9042 136.629V176.318ZM116.142 176.318H93.0162V137.185C93.3379 137.208 93.6596 137.246 93.9813 137.276C101.994 138.114 109.363 138.419 116.142 138.297V176.318ZM147.395 176.318H124.254V137.924C127.693 137.672 130.956 137.307 134.051 136.842C136.54 136.492 138.892 136.065 141.159 135.577C143.136 135.174 145.058 134.717 146.866 134.206C147.042 134.161 147.218 134.107 147.395 134.061V176.318Z" fill="#FF1A56"/>
</svg>
