<svg width="172" height="250" viewBox="0 0 172 250" fill="none" xmlns="http://www.w3.org/2000/svg">
<path d="M7.8745 228.905C6.5723 228.905 5.57649 228.89 4.88709 228.86L1.17198 228.814C0.903882 228.814 0.643442 228.692 0.405981 228.448C0.16086 228.204 0.0459601 227.945 0.0459601 227.679V213.311L0 209.586C0 208.344 0.0306401 206.783 0.0919202 204.901C0.0919202 204.505 0.13788 203.492 0.229801 201.854V200.81C0.229801 199.965 0.398321 199.279 0.727702 198.761C0.880902 198.487 1.11836 198.35 1.4554 198.35C2.93379 198.35 4.55005 198.38 6.30419 198.441C6.54932 198.471 6.89402 198.487 7.34596 198.487C8.34176 198.487 9.08478 198.502 9.56736 198.532H13.0757C13.6655 198.532 14.1251 198.609 14.4545 198.761C14.9983 199.066 15.2664 199.759 15.2664 200.848L15.2205 201.214C15.2205 201.305 15.1898 201.534 15.1285 201.9C15.0366 202.357 14.9907 202.692 14.9907 202.898C14.9907 203.233 15.0366 203.652 15.1285 204.17C15.1898 204.535 15.2205 204.779 15.2205 204.901L15.2664 205.175V217.859C15.2664 218.103 15.4043 218.255 15.6724 218.316C15.7643 218.347 15.9558 218.362 16.2622 218.362H19.5713C20.3833 218.332 21.6242 218.316 23.2865 218.316C23.6158 218.316 23.8916 218.415 24.0984 218.613C24.3129 218.811 24.4125 219.017 24.4125 219.23V228.006C24.4125 228.25 24.2899 228.448 24.0525 228.6C23.7844 228.722 23.4626 228.799 23.1026 228.829C22.712 228.92 22.0915 228.966 21.2489 228.966H14.6843C11.5743 228.966 9.30692 228.951 7.88982 228.92L7.8745 228.905Z" fill="#FDF4FF"/>
<path d="M30.4707 228.882C30.172 228.837 29.8043 228.799 29.383 228.768L28.4332 228.54C28.28 228.509 28.165 228.471 28.0961 228.425C28.0195 228.38 27.9965 228.342 28.0272 228.311C28.0272 227.526 27.9812 226.475 27.8893 225.173C27.8893 224.715 27.874 224.319 27.8433 223.969C27.8127 223.618 27.782 223.329 27.7514 223.085L27.6595 221.127C27.6595 220.609 27.6288 219.962 27.5676 219.17L27.5216 217.76C27.5216 216.61 27.5063 215.711 27.4756 215.079C27.445 214.439 27.4297 213.106 27.4297 211.079C27.4297 209.167 27.445 207.202 27.4756 205.168C27.5063 203.141 27.5982 201.214 27.7437 199.393C27.7437 199.058 28.1038 198.784 28.8315 198.578C29.2834 198.517 30.0418 198.487 31.0988 198.487C33.5424 198.487 35.3425 198.441 36.4915 198.35C40.0534 198.289 42.7421 198.258 44.5498 198.258H46.5414C49.0156 198.319 50.9153 198.411 52.2481 198.533C52.7307 198.533 53.0754 199.112 53.2899 200.262C53.3818 200.475 53.4891 201.016 53.604 201.9C53.6959 202.357 53.8185 202.913 53.964 203.583C53.9946 203.766 54.0023 203.941 53.987 204.109C53.9717 204.276 53.964 204.376 53.964 204.406C53.9334 204.711 53.7648 204.863 53.4661 204.863C53.3435 204.833 53.1673 204.817 52.9222 204.817C51.6507 204.817 50.0957 204.924 48.2573 205.137L45.8597 205.32C44.8639 205.442 44.0749 205.518 43.5081 205.549C43.4161 205.549 43.2936 205.732 43.148 206.097C43.0255 206.493 42.8876 207.4 42.7421 208.824L42.6501 209.959C42.6501 210.356 42.6961 210.607 42.788 210.706C42.8799 210.813 43.0791 210.866 43.3778 210.866H47.407C48.5867 210.866 49.9272 210.942 51.4362 211.095H51.9801C52.3707 211.186 52.6158 211.338 52.7078 211.552C52.8303 211.734 52.9069 211.933 52.9376 212.146L53.1214 216.191V216.328C53.1214 216.846 52.5775 217.143 51.4898 217.235C50.854 217.387 49.6514 217.463 47.8666 217.463C46.327 217.463 45.3312 217.448 44.8792 217.417C44.006 217.417 43.4774 217.433 43.2936 217.463C42.9642 217.555 42.7497 217.73 42.6578 217.989C42.5659 218.248 42.5199 218.682 42.5199 219.284C42.5199 219.68 42.4893 220.236 42.428 220.967C42.3974 221.333 42.382 221.904 42.382 222.697C44.343 222.697 45.7908 222.666 46.7329 222.605C47.7594 222.514 49.2071 222.468 51.0762 222.468C51.1987 222.468 51.3213 222.575 51.4362 222.788C51.5894 223.093 51.8268 223.771 52.1639 224.837C52.3477 225.447 52.5239 226.201 52.7078 227.107C52.769 227.321 52.7997 227.549 52.7997 227.793C52.7997 228.433 52.5009 228.745 51.8958 228.745C51.1068 228.745 50.0574 228.776 48.7245 228.837C48.0275 228.898 46.9398 228.928 45.4614 228.928C42.2901 228.928 39.9079 228.943 38.3069 228.974H31.1525C30.9993 228.974 30.7771 228.951 30.4707 228.905V228.882Z" fill="#FDF4FF"/>
<path d="M69.3307 227.9C69.1775 227.564 69.1009 226.963 69.1009 226.079C69.1009 223.443 69.0703 221.097 69.009 219.032C68.9171 216.061 68.8711 212.923 68.8711 209.624V199.622C68.8711 199.348 69.0013 199.081 69.2541 198.83C69.5069 198.571 69.775 198.441 70.0431 198.441L75.2519 198.487C76.2171 198.517 77.4886 198.532 79.0589 198.532C81.3263 198.532 83.0728 198.517 84.3137 198.487L85.9912 198.441C87.799 198.38 89.3004 198.35 90.4724 198.35C92.372 198.35 94.1875 198.624 95.9033 199.165C97.9255 199.774 99.5724 200.818 100.836 202.303C102.253 203.911 102.966 206.074 102.966 208.801C102.966 213.41 101.802 216.739 99.4805 218.804C97.4277 220.746 94.3636 221.714 90.2885 221.714H84.0839C84.1145 222.415 84.1299 223.154 84.1299 223.938C84.1299 224.213 84.1299 224.54 84.1069 224.913C84.0916 225.294 84.0839 225.797 84.0839 226.437C84.0839 227.435 83.8694 228.075 83.4481 228.349C83.1187 228.623 82.4983 228.76 81.5944 228.76C80.2692 228.76 79.3423 228.776 78.8291 228.806C76.7456 228.806 75.0834 228.837 73.8501 228.898H70.3188C69.8056 228.898 69.4762 228.562 69.323 227.9H69.3307ZM86.5351 216.267C87.1709 216.267 87.6381 215.658 87.9369 214.446C88.1743 213.631 88.3582 212.412 88.4807 210.813C88.542 209.937 88.5727 208.946 88.5727 207.857V207.354C88.5727 206.866 88.4961 206.143 88.3505 205.175C88.228 204.627 88.0901 204.2 87.9445 203.88C87.7913 203.56 87.5998 203.294 87.3547 203.088C87.1096 202.814 86.8415 202.677 86.5428 202.677C86.3896 202.677 86.2593 202.738 86.1598 202.859C86.0525 202.981 85.9529 203.134 85.8687 203.317C85.5393 203.865 85.2329 205.076 84.9648 206.95C84.8729 207.499 84.7963 208.314 84.735 209.403C84.5818 211.072 84.5129 213.296 84.5129 216.084C84.5741 216.145 84.6507 216.191 84.735 216.221L85.2789 216.267H86.5504H86.5351Z" fill="#FDF4FF"/>
<path d="M105.923 228.083C105.892 227.991 105.877 227.839 105.877 227.626C105.877 227.321 105.938 226.871 106.061 226.262C106.122 225.866 106.176 225.561 106.222 225.333C106.268 225.104 106.306 224.929 106.337 224.807C107.24 220.533 108.129 216.778 109.01 213.532L112.181 199.165C112.181 199.104 112.227 199.013 112.319 198.891C112.411 198.769 112.518 198.693 112.633 198.662H112.863C112.863 198.662 112.909 198.708 113.001 198.708C113.361 198.708 113.774 198.662 114.226 198.571C114.678 198.479 115.084 198.434 115.452 198.434C116.118 198.434 116.731 198.479 117.306 198.571C117.574 198.571 117.88 198.586 118.21 198.616C118.539 198.647 118.891 198.662 119.251 198.662C119.374 198.662 119.504 198.632 119.657 198.571H121.511L122.599 198.525C122.813 198.495 123.066 198.479 123.365 198.479C123.61 198.479 123.725 198.464 123.725 198.434H127.892C129.585 198.434 130.703 198.464 131.247 198.525C131.339 198.525 131.469 198.533 131.63 198.548C131.798 198.563 131.89 198.601 131.921 198.662C132.136 198.662 132.342 198.647 132.557 198.616C132.771 198.586 132.963 198.571 133.147 198.571C133.568 198.479 133.974 198.434 134.372 198.434C134.556 198.434 134.732 198.479 134.916 198.571C135.1 198.662 135.291 198.708 135.506 198.708L135.736 198.662H135.874C135.966 198.723 136.065 198.807 136.165 198.914C136.272 199.02 136.326 199.104 136.326 199.165L139.497 213.532C140.462 217.075 141.335 220.838 142.124 224.807C142.124 224.99 142.185 225.188 142.308 225.401C142.339 225.614 142.385 225.904 142.446 226.262C142.507 226.628 142.538 226.932 142.538 227.169C142.568 227.29 142.584 227.458 142.584 227.671C142.584 228.098 142.492 228.441 142.308 228.715C142.185 228.898 142.009 228.989 141.764 228.989H141.174C140.722 228.989 140.378 228.974 140.133 228.943H136.915C136.67 228.943 136.555 228.928 136.555 228.898H133.706V228.806C133.583 228.745 133.43 228.715 133.254 228.715C133.223 228.745 133.193 228.776 133.162 228.806C133.162 228.867 133.131 228.898 133.07 228.898H132.572C132.419 228.837 132.12 228.806 131.668 228.806C130.764 228.745 130.052 228.715 129.539 228.715C129.355 228.441 129.171 227.9 128.972 227.077C128.773 226.262 128.574 225.348 128.359 224.35C128.298 223.862 128.237 223.535 128.175 223.352C127.539 223.474 126.712 223.535 125.686 223.535H122.966L122.652 224.99C122.262 226.993 121.94 228.235 121.703 228.715C121.58 228.715 121.434 228.745 121.251 228.806C121.189 228.837 121.113 228.867 121.021 228.898H120.837C120.653 228.898 120.523 228.867 120.431 228.806C120.37 228.745 120.293 228.715 120.201 228.715L118.164 228.806H116.762C116.639 228.867 116.494 228.898 116.31 228.898H111.553C111.224 228.928 110.542 228.943 109.515 228.943H108.336C108.091 228.974 107.746 228.989 107.294 228.989H106.75C106.36 228.989 106.084 228.684 105.938 228.083H105.923ZM127.34 215.627C127.248 215.201 127.095 214.401 126.888 213.22C126.827 212.915 126.674 212.1 126.436 210.767L126.076 208.588C125.985 207.979 125.893 207.453 125.801 206.996L125.755 206.402C125.663 206.25 125.617 206.112 125.617 205.991L125.571 205.716C125.54 205.777 125.525 205.869 125.525 205.991C125.525 206.112 125.494 206.189 125.433 206.219V206.402L125.341 206.996C125.31 207.209 125.272 207.446 125.226 207.697C125.18 207.956 125.127 208.238 125.065 208.535L124.836 209.807C124.506 211.719 124.307 212.824 124.246 213.129C124.215 213.464 124.138 213.959 124.016 214.629C123.955 214.843 123.893 215.163 123.832 215.582L123.472 217.669H125.778L126.092 217.577H126.184C126.544 217.577 126.819 217.608 126.996 217.669C127.118 217.669 127.225 217.692 127.333 217.737C127.44 217.783 127.539 217.821 127.624 217.852L127.31 215.627H127.34Z" fill="#FDF4FF"/>
<path d="M154.738 228.905C153.436 228.905 152.44 228.89 151.75 228.86L148.035 228.814C147.767 228.814 147.507 228.692 147.269 228.448C147.024 228.204 146.909 227.945 146.909 227.679V213.311L146.863 209.586C146.863 208.344 146.894 206.783 146.955 204.901C146.955 204.505 147.001 203.492 147.093 201.854V200.81C147.093 199.965 147.262 199.279 147.591 198.761C147.744 198.487 147.982 198.35 148.319 198.35C149.797 198.35 151.413 198.38 153.167 198.441C153.413 198.471 153.757 198.487 154.209 198.487C155.205 198.487 155.948 198.502 156.431 198.532H159.939C160.529 198.532 160.988 198.609 161.318 198.761C161.862 199.066 162.13 199.759 162.13 200.848L162.084 201.214C162.084 201.305 162.053 201.534 161.992 201.9C161.9 202.357 161.854 202.692 161.854 202.898C161.854 203.233 161.9 203.652 161.992 204.17C162.053 204.535 162.084 204.779 162.084 204.901L162.13 205.175V217.859C162.13 218.103 162.268 218.255 162.536 218.316C162.628 218.347 162.819 218.362 163.125 218.362H166.435C167.247 218.332 168.488 218.316 170.15 218.316C170.479 218.316 170.755 218.415 170.962 218.613C171.176 218.811 171.276 219.017 171.276 219.23V228.006C171.276 228.25 171.153 228.448 170.916 228.6C170.648 228.722 170.326 228.799 169.966 228.829C169.575 228.92 168.955 228.966 168.112 228.966H161.548C158.438 228.966 156.17 228.951 154.753 228.92L154.738 228.905Z" fill="#FDF4FF"/>
<path d="M2.38471 246.731L1.32762 249.672H0.125L3.63329 239.966H5.03507L8.6889 249.672H7.43266L6.33728 246.731H2.38471ZM5.96194 245.558C4.96613 242.876 4.49121 241.612 4.30737 240.949H4.29971C4.13119 241.581 3.57201 243.25 2.75239 245.558H5.96194Z" fill="#FDF4FF"/>
<path d="M11.0377 239.966V245.482C11.0377 248.026 12.2939 248.727 13.5348 248.727C15.0285 248.727 15.9324 247.889 15.9324 245.482V239.966H17.0891V245.466C17.0891 248.62 15.7026 249.877 13.4965 249.877C11.2905 249.877 9.88867 248.597 9.88867 245.573V239.966H11.0453H11.0377Z" fill="#FDF4FF"/>
<path d="M22.0168 249.672L18.4473 239.967H19.7112L21.5649 245.139C22.2466 247.059 22.5224 247.935 22.6756 248.476H22.6986C22.8288 248.004 23.1965 246.967 23.7403 245.36L25.7013 239.959H26.9346L23.3114 249.664H22.0092L22.0168 249.672Z" fill="#FDF4FF"/>
<path d="M34.4246 245.154H29.5299V248.514H34.9302L34.777 249.672H28.3809V239.966H34.6851V241.124H29.5299V243.996H34.4246V245.154Z" fill="#FDF4FF"/>
<path d="M37.9322 245.489V249.672H36.7832V239.966H40.6822C42.352 239.966 43.4781 240.88 43.4781 242.602C43.4781 243.775 42.9878 244.606 41.9844 244.918C42.5206 245.093 43.2636 245.581 43.2636 247.28V247.706C43.2636 248.453 43.2636 249.268 43.3555 249.679H42.1759C42.0533 249.253 42.0686 248.521 42.0686 247.706V247.386C42.0686 245.954 41.6014 245.505 40.1689 245.505H37.9245L37.9322 245.489ZM37.9322 244.362H40.3911C41.6703 244.362 42.2908 243.829 42.2908 242.678C42.2908 241.619 41.6626 241.086 40.437 241.086H37.9322V244.362Z" fill="#FDF4FF"/>
<path d="M53.2158 249.672H52.3349C52.2966 249.428 52.2506 248.666 52.243 248.24C51.6991 249.283 50.8718 249.877 49.2709 249.877C46.6971 249.877 45.1191 247.866 45.1191 244.85C45.1191 241.993 46.7507 239.761 49.47 239.761C51.9136 239.761 52.9553 241.239 53.2617 242.671H52.0744C51.7604 241.764 51.048 240.888 49.4624 240.888C47.4171 240.888 46.3371 242.595 46.3371 244.766C46.3371 247.051 47.4325 248.735 49.4317 248.735C51.1323 248.735 52.0974 247.706 52.0974 245.794V245.505H49.4471V244.354H53.2081V249.664L53.2158 249.672Z" fill="#FDF4FF"/>
<path d="M55.4688 249.672V239.967H56.8476C58.686 243.006 61.3057 246.99 61.7729 247.988H61.7959C61.7193 246.724 61.7346 245.193 61.7346 243.616V239.959H62.8147V249.664H61.5125C60.3022 247.729 57.1003 242.496 56.5182 241.368H56.4952C56.5565 242.618 56.5565 243.989 56.5565 245.711V249.672H55.4764H55.4688Z" fill="#FDF4FF"/>
<path d="M71.4246 245.154H66.5299V248.514H71.9302L71.777 249.672H65.3809V239.966H71.6851V241.124H66.5299V243.996H71.4246V245.154Z" fill="#FDF4FF"/>
<path d="M78.4166 245.489V249.672H77.2676V239.966H81.1665C82.8364 239.966 83.9624 240.88 83.9624 242.602C83.9624 243.775 83.4722 244.606 82.4687 244.918C83.0049 245.093 83.748 245.581 83.748 247.28V247.706C83.748 248.453 83.748 249.268 83.8399 249.679H82.6602C82.5377 249.253 82.553 248.521 82.553 247.706V247.386C82.553 245.954 82.0857 245.505 80.6533 245.505H78.4089L78.4166 245.489ZM78.4166 244.362H80.8754C82.147 244.362 82.7751 243.829 82.7751 242.678C82.7751 241.619 82.147 241.086 80.9214 241.086H78.4166V244.362Z" fill="#FDF4FF"/>
<path d="M86.1445 239.966H87.3012V243.89H92.2189V239.966H93.3756V249.672H92.2189V245.055H87.3012V249.672H86.1445V239.966Z" fill="#FDF4FF"/>
<path d="M104.001 244.789C104.001 247.531 102.439 249.877 99.704 249.877C96.9694 249.877 95.4297 247.63 95.4297 244.789C95.4297 242.1 97.1149 239.768 99.7346 239.768C102.354 239.768 104.001 242.1 104.001 244.796V244.789ZM96.6476 244.743C96.6476 246.83 97.72 248.72 99.7423 248.72C101.765 248.72 102.776 246.914 102.776 244.811C102.776 242.709 101.711 240.911 99.6657 240.911C97.766 240.911 96.6476 242.694 96.6476 244.743ZM100.278 237.163L101.956 239.037H100.799L99.6274 237.795L98.4707 239.037H97.337L98.9993 237.163H100.286H100.278Z" fill="#FDF4FF"/>
<path d="M106 249.672V239.967H107.379C109.217 243.006 111.837 246.99 112.304 247.988H112.327C112.251 246.724 112.266 245.193 112.266 243.616V239.959H113.346V249.664H112.044C110.833 247.729 107.632 242.496 107.049 241.368H107.026C107.088 242.618 107.088 243.989 107.088 245.711V249.672H106.008H106Z" fill="#FDF4FF"/>
<path d="M121.956 245.154H117.061V248.514H122.461L122.308 249.672H115.912V239.966H122.216V241.124H117.061V243.996H121.956V245.154Z" fill="#FDF4FF"/>
<path d="M127.474 245.604V246.731H123.805V245.604H127.474Z" fill="#FDF4FF"/>
<path d="M130.611 246.731L129.554 249.672H128.352L131.86 239.966H133.262L136.915 249.672H135.659L134.556 246.731H130.604H130.611ZM134.181 245.558C133.185 242.876 132.71 241.612 132.526 240.949H132.511C132.342 241.581 131.783 243.25 130.964 245.558H134.181Z" fill="#FDF4FF"/>
<path d="M138.418 239.966H139.567V248.506H144.492L144.316 249.672H138.426V239.966H138.418Z" fill="#FDF4FF"/>
<path d="M145.932 239.966H149.762C151.792 239.966 152.711 241.216 152.711 242.823C152.711 244.728 151.608 245.794 149.8 245.794H147.088V249.672H145.932V239.966ZM147.088 244.636H149.639C150.757 244.636 151.546 244.24 151.546 242.846C151.546 241.749 150.926 241.117 149.639 241.117H147.088V244.636Z" fill="#FDF4FF"/>
<path d="M160.593 245.154H155.698V248.514H161.098L160.945 249.672H154.549V239.966H160.853V241.124H155.698V243.996H160.593V245.154Z" fill="#FDF4FF"/>
<path d="M163.434 246.845C163.732 247.98 164.43 248.78 166.038 248.78C167.647 248.78 168.26 248.041 168.26 247.135C168.26 246.182 167.808 245.596 165.709 245.169C163.25 244.674 162.668 243.76 162.668 242.434C162.668 240.728 164.031 239.753 165.808 239.753C168.466 239.753 169.087 241.406 169.179 242.389H168.007C167.838 241.726 167.494 240.858 165.77 240.858C164.598 240.858 163.84 241.33 163.84 242.305C163.84 243.097 164.177 243.6 166.03 243.966C168.98 244.56 169.454 245.649 169.454 246.99C169.454 248.536 168.42 249.862 165.962 249.862C163.679 249.862 162.53 248.628 162.262 246.838H163.441L163.434 246.845Z" fill="#FDF4FF"/>
<path d="M144.86 105.311C143.535 100.977 140.509 96.4897 135.744 95.5756C131.286 94.7147 127.448 96.5659 124.124 99.1789C124.124 99.1789 124.119 99.184 124.109 99.1941C124.63 91.2333 124.377 83.3335 122.178 75.4642C119.742 66.8026 115.453 58.7885 109.7 51.8866C110.796 51.5057 111.868 51.0639 112.917 50.5535C118.869 47.6815 123.09 42.3718 124.729 36.0184C126.575 28.8652 125.327 21.5367 123.81 14.4596C124.101 13.7207 124.247 12.9284 124.201 12.1209C124.109 10.5744 123.473 9.24131 122.24 8.28906C121.29 7.56536 120.057 7.16922 118.846 7.22255C116.724 7.32158 114.986 8.57854 113.109 9.42414C112.098 9.82789 111.064 10.1478 110.007 10.3916C102.033 1.35672 88.459 -2.5132 77.0226 1.70715C71.3542 3.80209 66.5207 7.39014 62.7596 11.9533C62.7596 11.9609 62.752 11.9685 62.7443 11.9762C62.6294 12.1133 62.5145 12.2504 62.4073 12.3951C58.5619 10.3383 52.9165 10.8563 49.2703 12.9436C44.4139 15.7318 43.0734 20.6225 43.127 25.8789C43.1346 26.2446 43.1883 26.5798 43.2802 26.8769C39.5038 29.5355 36.8688 33.8778 36.8458 38.898C36.8151 50.104 47.2557 56.9068 57.4436 55.6194C56.7159 61.8052 54.2034 67.8538 52.6867 73.7958C50.8789 80.8425 49.4695 87.9957 48.5503 95.2023C47.6847 102.272 46.98 109.775 47.9834 116.875C48.06 117.386 48.1443 117.866 48.2515 118.376C43.5176 120.395 39.6034 124.836 39.8715 130.214C39.8945 130.748 39.9557 131.311 40.063 131.822C40.1626 132.393 40.3004 132.957 40.4919 133.498C41.618 133.14 42.7823 132.805 43.9772 132.485C44.9501 132.21 45.9612 131.951 46.9953 131.708C46.9876 131.685 46.9723 131.662 46.957 131.639V131.608C46.9034 131.395 46.8191 131.205 46.7655 130.991C46.7119 130.831 46.6812 130.694 46.6583 130.557C46.6276 130.481 46.6276 130.428 46.6276 130.374V130.344C46.6046 130.131 46.6046 129.917 46.6046 129.864V129.78C46.6046 129.674 46.6046 129.483 46.6276 129.354V129.323C46.6583 129.216 46.6812 129.079 46.7119 128.95C46.7961 128.676 46.8727 128.409 46.957 128.142C46.957 128.112 47.0106 128.089 47.0336 128.005C47.1945 127.739 47.3323 127.441 47.4932 127.198C47.5468 127.122 47.6004 127.007 47.6541 126.931C47.7383 126.55 48.5503 125.964 48.8184 125.72C48.872 125.666 48.9563 125.613 49.0405 125.56C49.255 125.423 49.4695 125.293 49.684 125.126C49.8984 124.996 50.1436 124.889 50.3887 124.752C50.9862 126.017 51.6296 127.228 52.3113 128.409C52.7097 129.072 53.1157 129.719 53.5446 130.359C54.6017 130.176 55.6818 130.001 56.7925 129.849C58.11 129.651 59.4581 129.468 60.8369 129.308C60.339 128.607 59.8718 127.876 59.4198 127.144C58.47 125.56 57.6044 123.945 56.8537 122.52C54.0655 117.332 54.2264 111.627 54.4408 105.906C54.663 100.093 55.3064 94.311 56.3405 88.5823C57.4436 82.3508 58.9602 76.1879 60.6914 70.0859C62.4456 63.9001 64.667 57.7981 64.3682 51.2924C64.261 49.3041 62.2617 47.232 60.0939 48.0395C53.2842 50.622 44.3832 48.0395 43.6555 39.835C43.0044 32.9789 50.4729 28.3776 56.172 32.4684C57.9032 33.733 60.7144 32.438 61.151 30.4802C62.0702 26.336 63.7478 22.2223 66.153 18.619V18.5962C66.7735 17.682 67.4246 16.7907 68.1829 15.9299C70.9635 12.5399 74.5637 9.77456 78.8074 8.19003C88.4283 4.55626 99.2443 7.96911 105.709 15.7166C105.954 16.0137 106.215 16.2422 106.483 16.4174C106.491 16.4174 106.491 16.425 106.498 16.425C107.28 17.2325 109.999 17.263 111.248 17.004C111.891 16.8669 112.534 16.7069 113.163 16.5165C113.614 17.0269 114.158 17.4611 114.786 17.8039C115.698 18.2991 116.724 18.5733 117.759 18.5885C119.574 28.2024 120.026 39.3094 110.053 44.4743C105.939 46.6074 101.106 47.2701 96.525 47.4377C91.6379 47.6129 85.4792 47.4606 82.9821 42.5013C81.0364 38.6314 75.1995 42.029 77.1451 45.8913C80.37 52.2904 87.7236 54.1796 94.3802 54.1948C97.0152 54.2025 99.6809 54.0501 102.308 53.6692C102.362 53.7378 102.423 53.8063 102.484 53.8749C108.896 60.7539 113.515 69.0803 115.905 78.1609C117.023 82.427 117.513 86.7159 117.605 91.0124C112.81 86.8302 108 82.6479 102.929 78.8161C96.7624 74.1539 89.7918 70.2078 82.0092 69.1489C80.2015 68.8975 78.3784 69.5831 77.8498 71.4952C77.4132 73.0645 78.3861 75.3804 80.2091 75.6318C87.4862 76.6221 93.7674 80.2483 99.52 84.621C105.702 89.3288 111.462 94.6233 117.345 99.6893C117.253 101.068 117.13 102.447 116.985 103.826C105.112 105.799 92.4039 102.805 82.8518 95.4461C81.4118 94.3338 79.4814 94.052 78.072 95.4461C76.9077 96.604 76.6242 99.0798 78.072 100.2C81.6339 102.942 85.4945 105.197 89.5544 106.919C89.5467 106.919 89.5467 106.926 89.539 106.926C84.7285 109.288 80.347 112.815 77.5894 116.738C75.0999 120.288 80.9675 123.648 83.4263 120.128C86.2682 116.068 91.5153 113.379 96.0577 111.627C97.6204 111.01 99.3515 110.446 101.083 110.339H101.113C101.948 110.286 102.737 110.339 103.542 110.552C103.733 110.606 103.925 110.659 104.139 110.743L104.17 110.766C104.17 110.766 104.2 110.781 104.216 110.781C106.146 111.528 108.199 113.287 107.846 115.474C107.303 118.887 112.22 121.789 114.005 118.056C114.924 116.144 115.928 113.508 117.981 112.571C120.715 111.307 121.229 114.963 121.091 116.952C120.792 121.446 117.682 124.966 114.036 127.282H114.005C113.576 127.571 113.117 127.815 112.68 128.059C111.171 128.874 109.585 129.552 107.946 130.131C108.084 130.138 108.207 130.138 108.337 130.146C110.535 130.214 112.657 130.23 114.725 130.214C116.839 130.199 118.885 130.131 120.869 130.016C121.098 130.009 121.336 129.993 121.558 129.978C123.435 129.864 125.258 129.712 127.02 129.521C128.1 129.453 129.187 129.308 130.214 129.178C130.727 129.117 131.24 129.049 131.723 128.957C133.186 128.767 134.595 128.554 135.974 128.295C136.878 128.142 137.774 127.967 138.64 127.792C141.191 125.019 143.167 121.713 144.316 118.696C144.538 118.132 144.722 117.569 144.883 116.974C145.97 113.211 145.993 109.044 144.86 105.311ZM58.3398 18.5962C57.3133 20.554 56.4171 22.6261 55.743 24.7515C54.1727 24.2411 52.5794 24.0506 50.9862 24.1877C50.6032 24.203 50.2202 24.2411 49.8448 24.2868C49.9367 22.0318 50.427 19.9674 52.656 18.7028C54.211 17.8191 56.7542 17.4535 58.6385 18.0477C58.5313 18.2305 58.4394 18.4133 58.3398 18.5962ZM138.908 112.167C138.693 115.984 136.832 119.641 134.342 122.467C133.959 122.894 133.531 123.351 133.071 123.808C130.911 125.956 128.038 127.921 125.013 126.984C124.767 126.901 124.53 126.87 124.308 126.847C124.469 126.603 124.66 126.367 124.798 126.093C125.419 125.156 125.962 124.158 126.422 123.084C128.421 118.353 128.689 111.093 124.446 107.513C124.852 107.353 125.227 107.109 125.61 106.759C127.824 104.664 131.799 100.573 135.231 102.455C138.341 104.176 139.099 108.991 138.908 112.167Z" fill="#FF1A56"/>
<path d="M168.674 123.175L167.632 121.324L167.602 121.271L167.41 120.928V120.913L166.323 119.001C165.924 118.292 165.036 118.018 164.308 118.376L162.523 119.26L161.857 119.595H161.834C161.795 119.625 161.765 119.648 161.727 119.671C161.688 119.686 160.539 120.433 158.348 121.362C158.318 121.378 158.287 121.385 158.257 121.4C155.545 122.688 152.443 123.937 148.95 125.065C148.666 125.148 148.39 125.248 148.099 125.331C145.495 126.177 142.661 126.939 139.597 127.594C139.283 127.662 138.961 127.723 138.639 127.792C137.774 127.967 136.877 128.142 135.974 128.295C134.595 128.554 133.185 128.767 131.722 128.957C131.24 129.049 130.726 129.117 130.213 129.178C129.187 129.308 128.099 129.453 127.019 129.521C125.257 129.712 123.434 129.864 121.557 129.978C121.335 129.993 121.098 130.009 120.868 130.016C118.884 130.131 116.839 130.199 114.725 130.214C112.656 130.23 110.535 130.214 108.336 130.146C108.206 130.138 108.083 130.138 107.946 130.131H107.938C106.145 130.077 104.307 130.009 102.415 129.879H102.392C101.687 129.849 100.96 129.803 100.224 129.712L99.8106 129.689C98.8378 129.613 97.8573 129.521 96.8615 129.422C83.0122 127.967 71.0855 128.104 60.8441 129.308H60.8364C59.4576 129.468 58.1095 129.651 56.792 129.849C55.6812 130.001 54.6012 130.176 53.5441 130.359C52.2266 130.588 50.9397 130.839 49.6758 131.113C48.7719 131.296 47.8757 131.494 46.9948 131.708C45.9607 131.951 44.9496 132.21 43.9767 132.485C42.7818 132.805 41.6175 133.14 40.4914 133.498C39.442 133.825 38.4156 134.168 37.4274 134.526C31.9122 136.438 27.2396 138.663 23.264 141.009H23.2334C22.4214 141.497 21.6708 141.954 20.9354 142.411C12.0421 148.086 7.15503 154.036 4.9566 157.228L4.65786 157.67L2.36752 161.037C1.91558 161.707 2.06112 162.614 2.70456 163.101L6.77969 166.186C7.47675 166.72 8.48021 166.552 8.97045 165.828L10.219 163.992L10.242 163.97L10.7246 163.253L10.7552 163.208L10.8012 163.139L10.8548 163.055C11.4523 162.042 14.1333 157.852 19.9932 153.084C20.7439 152.482 21.5482 151.872 22.4061 151.248V176.318H6.96353C6.14391 176.318 5.47748 176.981 5.47748 177.796V182.915C5.47748 183.731 6.14391 184.386 6.96353 184.386H164.132C164.951 184.386 165.618 183.731 165.618 182.915V177.796C165.618 176.981 164.951 176.318 164.132 176.318H155.507V131.41C158.394 130.329 161.045 129.156 163.465 127.929C163.956 127.685 164.385 127.464 164.752 127.266C164.921 127.175 165.082 127.083 165.22 127L165.327 126.939L165.763 126.672L166.185 126.413L166.254 126.367L168.146 125.217C168.843 124.79 169.08 123.892 168.674 123.175ZM53.6513 176.318H30.5181V146.311C33.697 144.673 37.4734 143.043 41.8932 141.626L42.7435 141.352C45.3479 140.514 48.1744 139.752 51.2461 139.097C52.0274 138.937 52.8317 138.769 53.6513 138.617V176.318ZM84.9042 176.318H61.7633V137.505C61.7633 137.459 61.7633 137.421 61.7556 137.375C62.4297 137.292 63.1268 137.215 63.8162 137.162C69.4693 136.568 75.6586 136.324 82.499 136.545C83.288 136.568 84.0923 136.591 84.9042 136.629V176.318ZM116.142 176.318H93.0162V137.185C93.3379 137.208 93.6596 137.246 93.9813 137.276C101.994 138.114 109.363 138.419 116.142 138.297V176.318ZM147.395 176.318H124.254V137.924C127.693 137.672 130.956 137.307 134.051 136.842C136.54 136.492 138.892 136.065 141.159 135.577C143.136 135.174 145.058 134.717 146.866 134.206C147.042 134.161 147.218 134.107 147.395 134.061V176.318Z" fill="#FF1A56"/>
</svg>
