<svg width="91" height="88" viewBox="0 0 91 88" fill="none" xmlns="http://www.w3.org/2000/svg">
<g clip-path="url(#clip0_766_1051)">
<path d="M17.0996 55.0493C17 55.2781 16.8972 55.5086 16.791 55.7439C16.5853 56.2113 16.3714 56.6884 16.1362 57.1996L17.0996 55.0493Z" fill="white"/>
<path d="M33.5536 64.7947L33.5496 64.7987C33.5496 64.7987 33.5496 64.7947 33.5536 64.7947Z" fill="white"/>
<path d="M90.9673 39.856C90.7191 41.7612 89.0878 43.1553 87.2182 43.1553C87.0581 43.1553 86.8965 43.1439 86.7332 43.1228C84.6692 42.8566 83.2094 40.9579 83.4788 38.8904C83.727 36.9851 85.3583 35.5911 87.228 35.5911C87.388 35.5911 87.5496 35.6008 87.7129 35.6219C89.7769 35.888 91.2384 37.7868 90.9673 39.856Z" fill="white"/>
<path d="M80.9722 40.9317V40.9674C80.9722 41.649 80.7322 42.2721 80.324 42.7639C80.2979 42.7979 80.2701 42.8304 80.2407 42.8629C80.2113 42.8969 80.1803 42.931 80.1476 42.9635C80.1329 42.9781 80.1199 42.9943 80.1052 43.0073C80.0905 43.0219 80.0758 43.0349 80.0611 43.0479C80.0431 43.0673 80.0219 43.0852 80.0023 43.103C79.7035 43.3676 79.3491 43.5737 78.9572 43.7019V43.7068L78.936 43.7149L78.2518 43.9664L78.0657 44.0346L69.3035 47.2527C68.7059 47.488 68.087 47.7363 67.4469 47.9944L66.6648 48.3108C65.6393 48.7295 64.555 49.1807 63.3516 49.6903L63.0168 49.8331C62.6952 49.971 62.3702 50.109 62.042 50.2502C60.1233 51.0778 58.2373 51.9168 56.4379 52.7429C56.0133 52.9376 55.5888 53.1356 55.1593 53.3336L54.9666 53.4229C54.3037 53.7328 53.6342 54.0509 52.9533 54.3755L51.936 54.8623L51.727 54.9646C51.2812 55.1804 50.8321 55.3979 50.3815 55.6218C50.1186 55.75 49.8573 55.8799 49.5944 56.0097L49.3495 56.1314C49.3495 56.1314 49.3429 56.1347 49.3413 56.1347L49.3331 56.1395L49.3266 56.1428L48.2979 56.6572L48.2913 56.6605C47.2316 57.196 46.1506 57.7494 45.0794 58.3109C44.7218 58.4959 44.3658 58.6842 44.0082 58.8724C43.6457 59.0672 43.28 59.2636 42.9126 59.4599L42.7999 59.5216C42.5288 59.6628 42.2627 59.8072 41.9949 59.9533L41.8283 60.0442C41.1474 60.4125 40.4142 60.8199 39.5847 61.284C38.9658 61.6297 38.2996 62.0062 37.4276 62.506C37.2415 62.6132 37.0521 62.7235 36.8627 62.8322C36.5589 63.0091 36.2585 63.1844 35.9597 63.3597L35.7213 63.4976C35.38 63.7005 35.0371 63.9017 34.6958 64.1062C34.6795 64.1159 34.6631 64.1273 34.6468 64.137L33.5528 64.7943C33.5528 64.7943 33.5511 64.7943 33.5495 64.7943C33.2392 64.9825 32.9306 65.1708 32.6236 65.359L32.4212 65.484C32.0603 65.7063 31.6945 65.9319 31.3304 66.1591C31.1442 66.276 30.9548 66.3944 30.7621 66.5162C30.3996 66.745 30.0355 66.9771 29.6714 67.2091C29.1129 67.5662 28.5561 67.928 27.9976 68.2948C27.6351 68.5318 27.2759 68.7703 26.9166 69.0089C26.7272 69.1355 26.5378 69.262 26.35 69.3886C25.5973 69.895 24.8706 70.3932 24.1864 70.8703C20.4046 73.5042 16.8563 76.2258 13.6428 78.9571C13.3162 79.2346 12.9913 79.5121 12.6679 79.7945C9.94263 82.159 7.40999 84.5852 5.13699 87.0032C5.1272 87.013 5.1174 87.0243 5.10597 87.0357C4.52466 87.6719 3.71637 87.9981 2.90808 87.9981C2.22716 87.9981 1.54624 87.766 0.999221 87.2937C-0.202595 86.2567 -0.339759 84.4277 0.690602 83.2041C1.04168 82.7562 1.41235 82.271 1.82384 81.724L1.92998 81.5845C1.98713 81.5066 2.04591 81.4287 2.1047 81.3508C2.2043 81.2177 2.29575 81.096 2.38392 80.9743C3.12853 79.9665 3.8666 78.9327 4.57854 77.8925L4.67325 77.7545L5.10924 77.1119L5.11413 77.1037C5.44398 76.6169 5.77056 76.1235 6.08734 75.6367C6.23757 75.4046 6.3829 75.1839 6.52333 74.9632C6.61804 74.8171 6.70458 74.6824 6.78786 74.5477C6.92176 74.34 7.04422 74.1453 7.16669 73.9505L7.17486 73.9359C7.37244 73.6259 7.56512 73.3143 7.7578 73.0011C7.8966 72.7788 8.02886 72.5613 8.16113 72.3439L8.17093 72.3276C8.47628 71.8246 8.79633 71.289 9.14904 70.6918C9.29436 70.4451 9.43806 70.1984 9.58175 69.9501L9.64054 69.8495C9.7924 69.5866 9.93936 69.3286 10.0847 69.0722C10.2398 68.8012 10.3949 68.5269 10.5468 68.2542C10.7019 67.9767 10.8538 67.7025 11.0056 67.4282C11.1755 67.1199 11.3404 66.8213 11.502 66.521L11.8874 65.8037C11.9005 65.7778 11.9135 65.7567 11.9233 65.7372L12.343 64.9436C12.4883 64.6677 12.632 64.3918 12.7741 64.1143C12.908 63.8563 13.0402 63.5999 13.1725 63.3418L13.2476 63.1941L13.2639 63.1601C13.3538 62.9832 13.4436 62.8063 13.5334 62.6294C13.5628 62.5693 13.5922 62.5109 13.6216 62.4509C13.7636 62.1669 13.904 61.8877 14.0412 61.6086C14.1735 61.3408 14.3057 61.0731 14.4364 60.8053C14.4445 60.7842 14.4543 60.7647 14.4641 60.7469L14.4756 60.7225C14.5066 60.6609 14.536 60.5976 14.567 60.5359C14.6405 60.3833 14.714 60.2324 14.7858 60.0815C14.8087 60.0328 14.8332 59.9825 14.856 59.9338C14.9409 59.7569 15.021 59.5865 15.1026 59.4161L15.2561 59.0915C15.2953 59.012 15.3328 58.9309 15.3704 58.8497C15.4635 58.655 15.5565 58.4586 15.6464 58.2623C15.6464 58.2623 15.648 58.259 15.648 58.2574L15.7492 58.0383C15.8456 57.8306 15.9403 57.6245 16.035 57.4184C16.0546 57.3762 16.0725 57.3356 16.0921 57.295L16.1362 57.1977C16.3714 56.6864 16.5853 56.2093 16.791 55.7419C16.8972 55.5066 17 55.2762 17.0996 55.0474L17.1633 54.9013C17.2891 54.6173 17.4099 54.3382 17.5291 54.0606C17.6434 53.7977 17.7544 53.5381 17.8638 53.2784C17.9945 52.9749 18.1202 52.6796 18.2443 52.3842C18.3031 52.2447 18.3619 52.1051 18.419 51.9655C18.4566 51.8763 18.4941 51.7854 18.5317 51.6961C18.5513 51.6474 18.5709 51.6004 18.5905 51.5517C18.7113 51.2596 18.8289 50.9756 18.9464 50.69L18.9546 50.6672C19.0624 50.4043 19.1702 50.1398 19.2747 49.8769C19.389 49.5945 19.4984 49.3186 19.6078 49.0444C19.7172 48.7669 19.8282 48.491 19.9344 48.2151C20.0356 47.957 20.1336 47.7055 20.2299 47.454C20.3475 47.1537 20.4618 46.8535 20.5745 46.5549C20.6822 46.2774 20.7851 46.0031 20.8863 45.7305C20.9876 45.4611 21.0872 45.1965 21.1835 44.932L21.2129 44.8541C21.3093 44.5945 21.4056 44.3348 21.5003 44.0751C21.5836 43.8479 21.6669 43.6175 21.7485 43.387L22.1796 42.1845C22.5715 41.0777 22.9536 39.9677 23.3145 38.8917L23.3275 38.8511C23.3977 38.6418 23.468 38.4324 23.5365 38.2231C23.7113 37.6957 23.8811 37.1763 24.046 36.6603C24.1325 36.399 24.2142 36.1426 24.2958 35.8878C25.5319 32.0091 26.6897 27.9925 27.7347 23.9467C27.8 23.6968 27.8621 23.4534 27.9241 23.2116L27.9274 23.1937C27.9731 23.0184 28.0156 22.848 28.0597 22.6793L28.1691 22.2395C28.2262 22.0171 28.2818 21.7948 28.3356 21.5741L28.3618 21.4686C28.4581 21.0759 28.5544 20.6815 28.6508 20.2904C28.6573 20.2563 28.6655 20.2239 28.6753 20.1882L28.6785 20.1736C28.7635 19.8165 28.85 19.453 28.9349 19.0927C29.1619 18.1304 29.3529 17.2962 29.5211 16.5416C29.6011 16.1862 29.6795 15.8356 29.753 15.4916C30.0975 13.919 30.4225 12.3546 30.718 10.8421C30.7442 10.709 30.7687 10.5873 30.7915 10.4639C30.8258 10.2854 30.8601 10.1037 30.8944 9.92514L30.9009 9.89593C30.9222 9.78233 30.945 9.66873 30.9662 9.55837C30.9956 9.3896 31.0283 9.22082 31.0593 9.05366C31.0822 8.93195 31.105 8.80861 31.1279 8.68689L31.1736 8.44184C31.2193 8.1838 31.2651 7.93388 31.3075 7.69045L31.3696 7.34803C31.4104 7.11596 31.4496 6.892 31.4871 6.67616C31.4953 6.62585 31.5067 6.56743 31.5165 6.50901L31.5329 6.41326C31.5818 6.12763 31.6276 5.85337 31.67 5.59371L31.7043 5.3941C31.7157 5.3162 31.7288 5.23992 31.7419 5.16527L31.995 3.5424C31.9966 3.53267 31.9982 3.52131 31.9999 3.51157V3.49209L32.0113 3.42718V3.41582L32.0472 3.19673C32.0505 3.16914 32.0538 3.14155 32.057 3.11721L32.0636 3.08151C32.0652 3.06366 32.0685 3.04581 32.0701 3.02795C32.0782 2.97115 32.0864 2.9176 32.0929 2.86891C32.0962 2.84132 32.1011 2.81374 32.1044 2.78777L32.1272 2.63035V2.53623L32.1485 2.46969V2.4632L32.1517 2.45021V2.44048L32.155 2.43236L32.1583 2.41451L32.1615 2.39828L32.4669 1.53816C33.0335 0.496281 34.1978 -0.136638 35.4306 0.0224034C36.2046 0.121398 36.8953 0.515755 37.3738 1.13407C37.8571 1.75725 38.0661 2.53136 37.9632 3.3152C37.96 3.34279 37.9551 3.38012 37.9485 3.41907C37.9436 3.44665 37.9387 3.47262 37.9338 3.49696L37.9289 3.51806C37.9289 3.53591 37.9224 3.55539 37.9191 3.57486C37.6415 5.03706 35.2036 17.5883 30.3392 33.249C27.1404 43.5412 21.9477 58.1162 14.7744 71.599C23.8337 65.0264 33.5136 59.2165 41.3613 54.8412L26.577 59.7066L26.5688 59.7098C26.5443 59.718 26.5231 59.7245 26.5019 59.7309C26.4823 59.7374 26.4627 59.7439 26.4431 59.7488C25.9875 59.8819 25.5254 59.9013 25.0878 59.8218C24.0803 59.6401 23.2034 58.9374 22.8426 57.9101C22.4066 56.6653 22.8768 55.3103 23.9072 54.5718C24.1162 54.4225 24.3497 54.2976 24.6028 54.2051H24.6094C24.6094 54.2051 24.6273 54.197 24.6338 54.1937C24.642 54.1905 24.6502 54.1872 24.6567 54.1856C24.66 54.1856 24.6616 54.184 24.6632 54.184L24.6796 54.1791L24.753 54.1548L31.7811 51.8406L56.6191 43.6646C64.7918 41.0939 70.7372 39.4548 75.053 38.5866C75.7812 38.4405 76.4622 38.3156 77.1006 38.2133C77.117 38.2101 77.1333 38.2085 77.1496 38.2052C77.388 38.1338 77.6395 38.0916 77.8991 38.0835C77.9007 38.0819 77.904 38.0819 77.9073 38.0819C77.9416 38.0803 77.9775 38.0803 78.0134 38.0803C78.5392 38.0803 79.0356 38.215 79.4634 38.4503C80.3534 38.9388 80.9592 39.8654 80.9722 40.93V40.9317Z" fill="white"/>
</g>
<defs>
<clipPath id="clip0_766_1051">
<rect width="91" height="88" fill="white"/>
</clipPath>
</defs>
</svg>
