<svg width="1391" height="301" viewBox="0 0 1391 301" fill="none" xmlns="http://www.w3.org/2000/svg">
<path d="M0 216.403V84.3886C0 30.0791 17.4187 0 48.49 0C79.5612 0 96.7446 30.0791 96.7446 84.3886V105.695H65.6733V82.2998C65.6733 60.9938 59.7886 49.2963 49.1962 49.2963C38.6037 49.2963 32.9544 60.9938 32.9544 82.2998V218.491C32.9544 239.797 38.8391 251.495 49.1962 251.495C59.5532 251.495 65.6733 239.797 65.6733 218.491V186.741H96.7446V216.403C96.7446 270.712 79.5612 300.791 48.49 300.791C17.4187 300.791 0 270.712 0 216.403Z" fill="#FAFAF5"/>
<path d="M117.694 4.1925H150.649V122.838H185.957V4.1925H218.911V296.628H185.957V173.805H150.649V296.628H117.694V4.1925Z" fill="#FAFAF5"/>
<path d="M244.796 4.1925H277.75V245.661H331.89V296.628H244.796V4.1925Z" fill="#FAFAF5"/>
<path d="M346.719 216.403V84.3886C346.719 31.3324 364.373 0 396.621 0C428.869 0 446.523 31.3324 446.523 84.3886V216.403C446.523 269.459 428.869 300.791 396.621 300.791C364.373 300.791 346.719 269.459 346.719 216.403ZM413.569 218.491V82.2998C413.569 62.6648 407.684 50.9674 396.621 50.9674C385.558 50.9674 379.673 62.6648 379.673 82.2998V218.491C379.673 238.126 385.558 249.824 396.621 249.824C407.684 249.824 413.569 238.126 413.569 218.491Z" fill="#FAFAF5"/>
<path d="M469.826 4.1925H559.509V55.1599H502.781V122.838H547.975V173.805H502.781V245.661H559.509V296.628H469.826V4.1925Z" fill="#FAFAF5"/>
<path d="M616.709 220.58V207.629H647.78V220.58C647.78 238.544 652.959 251.495 664.728 251.495C675.085 251.495 681.912 240.215 681.912 220.58C681.912 195.514 676.262 189.248 653.9 170.031C625.654 145.8 617.415 120.734 617.415 79.7932C617.415 32.1679 634.363 0 666.141 0C697.918 0 713.689 32.1679 713.689 80.6287V88.984H682.618V81.0465C682.618 62.6648 677.91 49.2963 666.376 49.2963C656.254 49.2963 650.37 60.9938 650.37 78.9577C650.37 101.517 656.725 108.201 678.852 127.001C707.804 151.649 714.866 177.55 714.866 219.327C714.866 268.623 697.447 300.791 665.199 300.791C632.951 300.791 616.709 268.623 616.709 220.58Z" fill="#FAFAF5"/>
<path d="M798.899 243.557H761.943L756.529 296.613H725.223L759.354 4.17761H803.842L837.974 296.613H804.313L798.899 243.557ZM793.721 193.425L780.304 62.6648L767.122 193.425H793.721Z" fill="#FAFAF5"/>
<path d="M855.628 4.1925H896.35L929.304 173.388V4.1925H958.728V296.628H925.538L885.051 88.5811V296.628H855.628V4.1925Z" fill="#FAFAF5"/>
<path d="M984.612 4.1925H1034.75C1066.76 4.1925 1083.95 33.0183 1083.95 86.9101V213.911C1083.95 267.802 1066.76 296.628 1034.75 296.628H984.612V4.1925ZM1034.28 245.646C1046.05 245.646 1050.99 236.455 1050.99 214.731V86.0596C1050.99 64.3358 1046.05 55.145 1034.28 55.145H1017.57V245.646H1034.28Z" fill="#FAFAF5"/>
<path d="M1107.01 4.1925H1155.74C1188.69 4.1925 1204.47 28.0051 1204.47 78.5548V89.8344C1204.47 120.749 1197.64 139.966 1183.05 149.993V151.246C1198.11 158.348 1204.7 180.072 1204.7 221.848V256.105C1204.7 272.398 1205.17 284.095 1208.47 296.628H1174.81C1172.92 288.691 1171.98 284.513 1171.98 255.687V217.671C1171.98 189.68 1166.57 179.654 1151.27 179.654H1139.97V296.628H1107.01V4.1925ZM1151.97 128.687C1165.63 128.687 1171.51 118.66 1171.51 96.1009V84.8212C1171.51 64.3507 1166.57 55.1599 1155.5 55.1599H1139.97V128.687H1151.97Z" fill="#FAFAF5"/>
<path d="M1228.95 4.1925H1261.9V296.628H1228.95V4.1925Z" fill="#FAFAF5"/>
<path d="M1287.79 4.1925H1328.52L1361.47 173.388V4.1925H1390.89V296.628H1357.7L1317.22 88.5811V296.628H1287.79V4.1925Z" fill="#FAFAF5"/>
</svg>
